<?xml version="1.0" encoding="UTF-8"?>
<!-- Generator: visioncortex VTracer 0.6.2 -->
<svg version="1.1" xmlns="http://www.w3.org/2000/svg" width="785" height="1280">
<path d="M0 0 C0.9796875 -0.00257812 1.959375 -0.00515625 2.96875 -0.0078125 C5.5 0.125 5.5 0.125 7.5 1.125 C9.02001321 1.2050007 10.54116466 1.26372436 12.0625 1.3125 C20.70258176 1.99037875 29.76253202 5.25626601 37.5 9.125 C37.5 9.785 37.5 10.445 37.5 11.125 C38.2425 11.2075 38.985 11.29 39.75 11.375 C43.0754827 12.28194983 44.16456187 13.64359699 46.5 16.125 C47.28375 16.57875 48.0675 17.0325 48.875 17.5 C54.03240614 20.69267999 57.58720005 24.8290001 60.5 30.125 C61.139375 31.053125 61.77875 31.98125 62.4375 32.9375 C67.39525344 40.59948259 70.87214128 47.82146802 70.5 57.125 C71.16 57.125 71.82 57.125 72.5 57.125 C72.57497978 61.76567173 72.62898734 66.40597954 72.66479492 71.04711914 C72.67974517 72.62107497 72.70011294 74.19499015 72.72631836 75.76879883 C72.87625827 85.01509352 72.73691897 93.32305207 69.5 102.125 C69.05140625 103.35089844 68.6028125 104.57679688 68.140625 105.83984375 C62.42357127 119.088634 55.72660728 130.89839272 45.5 141.125 C45.11457031 141.83914062 44.72914063 142.55328125 44.33203125 143.2890625 C41.71240485 147.34417714 38.33038389 150.46428497 34.875 153.8125 C33.50563196 155.14750657 32.13833731 156.48464423 30.7734375 157.82421875 C30.16935059 158.41033936 29.56526367 158.99645996 28.94287109 159.6003418 C27.40029892 161.0827594 27.40029892 161.0827594 26.5 163.125 C25.84 163.125 25.18 163.125 24.5 163.125 C24.39192017 163.72138275 24.28384033 164.3177655 24.17248535 164.93222046 C23.41368062 167.40646244 22.57283622 168.41165102 20.74023438 170.20947266 C20.16293579 170.78331696 19.58563721 171.35716125 18.99084473 171.94839478 C18.36480347 172.55581512 17.73876221 173.16323547 17.09375 173.7890625 C16.13390198 174.73898575 16.13390198 174.73898575 15.15466309 175.70809937 C13.11007825 177.72928173 11.05560537 179.74003205 9 181.75 C6.9461563 183.768805 4.89445443 185.78972205 2.84533691 187.81332397 C1.56975049 189.0719066 0.29110049 190.32739309 -0.99084473 191.57949829 C-4.13416657 194.55266135 -4.13416657 194.55266135 -6.5 198.125 C-7.16 198.125 -7.82 198.125 -8.5 198.125 C-8.5 198.785 -8.5 199.445 -8.5 200.125 C-9.94458008 201.54833984 -9.94458008 201.54833984 -11.95703125 203.2109375 C-16.60791317 207.16638916 -20.89735826 211.41001747 -25.1875 215.75 C-25.92033203 216.48734375 -26.65316406 217.2246875 -27.40820312 217.984375 C-28.82633833 219.41146146 -30.24353042 220.83948589 -31.65966797 222.26855469 C-33.93254077 224.56132794 -36.21542289 226.84388962 -38.5 229.125 C-39.98967072 230.61449594 -41.47924281 232.10409053 -42.96875 233.59375 C-46.32291667 236.94791667 -49.67708333 240.30208333 -53.03125 243.65625 C-53.81072998 244.43653564 -54.59020996 245.21682129 -55.39331055 246.02075195 C-56.64143602 247.267431 -57.89195782 248.51173094 -59.14770508 249.75073242 C-60.99948035 251.57890101 -62.64913138 253.32936523 -64.1875 255.4375 C-64.620625 255.994375 -65.05375 256.55125 -65.5 257.125 C-66.16 257.125 -66.82 257.125 -67.5 257.125 C-67.5 257.785 -67.5 258.445 -67.5 259.125 C-69.14351457 260.48676922 -70.81522656 261.81462066 -72.5 263.125 C-75.18835251 265.67893489 -77.62511257 268.27513508 -80 271.125 C-82.37353344 273.97324012 -84.77004182 276.61638978 -87.5 279.125 C-88.16 279.125 -88.82 279.125 -89.5 279.125 C-89.5 279.785 -89.5 280.445 -89.5 281.125 C-90.16 281.125 -90.82 281.125 -91.5 281.125 C-91.5 281.785 -91.5 282.445 -91.5 283.125 C-92.16 283.125 -92.82 283.125 -93.5 283.125 C-93.5 283.785 -93.5 284.445 -93.5 285.125 C-94.79296875 286.39453125 -94.79296875 286.39453125 -96.6875 287.9375 C-100.79538925 291.42477289 -104.6282851 295.13143018 -108.4375 298.9375 C-109.01717529 299.51282471 -109.59685059 300.08814941 -110.1940918 300.6809082 C-113.21650553 303.62226058 -113.21650553 303.62226058 -115.5 307.125 C-116.16 307.125 -116.82 307.125 -117.5 307.125 C-117.5 307.785 -117.5 308.445 -117.5 309.125 C-119.875 311.75 -119.875 311.75 -122.5 314.125 C-123.16 314.125 -123.82 314.125 -124.5 314.125 C-124.5 314.785 -124.5 315.445 -124.5 316.125 C-125.16 316.125 -125.82 316.125 -126.5 316.125 C-126.5 316.785 -126.5 317.445 -126.5 318.125 C-128.00390625 319.5703125 -128.00390625 319.5703125 -130.0625 321.25 C-133.7052848 324.33928747 -136.80532565 327.62799631 -139.8984375 331.2578125 C-141.99216906 333.6987971 -144.12573001 335.95423886 -146.5 338.125 C-147.16 338.125 -147.82 338.125 -148.5 338.125 C-148.5 338.785 -148.5 339.445 -148.5 340.125 C-149.16 340.125 -149.82 340.125 -150.5 340.125 C-150.5 340.785 -150.5 341.445 -150.5 342.125 C-151.16 342.125 -151.82 342.125 -152.5 342.125 C-152.5 342.785 -152.5 343.445 -152.5 344.125 C-154.14351457 345.48676922 -155.81522656 346.81462066 -157.5 348.125 C-160.12325838 350.62029455 -162.46362446 353.07823145 -164.6875 355.9375 C-165.285625 356.659375 -165.88375 357.38125 -166.5 358.125 C-167.16 358.125 -167.82 358.125 -168.5 358.125 C-168.5 358.785 -168.5 359.445 -168.5 360.125 C-170.375 362.25 -170.375 362.25 -172.5 364.125 C-173.16 364.125 -173.82 364.125 -174.5 364.125 C-174.5 364.785 -174.5 365.445 -174.5 366.125 C-175.16 366.125 -175.82 366.125 -176.5 366.125 C-176.5 366.785 -176.5 367.445 -176.5 368.125 C-178.875 370.75 -178.875 370.75 -181.5 373.125 C-182.16 373.125 -182.82 373.125 -183.5 373.125 C-183.5 373.785 -183.5 374.445 -183.5 375.125 C-184.16 375.125 -184.82 375.125 -185.5 375.125 C-185.5 375.785 -185.5 376.445 -185.5 377.125 C-187.07421875 378.640625 -187.07421875 378.640625 -189.1875 380.375 C-191.85349133 382.62575728 -194.21010091 384.82549545 -196.375 387.5625 C-197.07625 388.408125 -197.7775 389.25375 -198.5 390.125 C-199.16 390.125 -199.82 390.125 -200.5 390.125 C-200.5 390.785 -200.5 391.445 -200.5 392.125 C-201.875 393.75 -201.875 393.75 -203.5 395.125 C-204.16 395.125 -204.82 395.125 -205.5 395.125 C-206.16 396.445 -206.82 397.765 -207.5 399.125 C-208.16 399.125 -208.82 399.125 -209.5 399.125 C-209.5 399.785 -209.5 400.445 -209.5 401.125 C-211.48260426 402.81232277 -213.4832342 404.47866057 -215.5 406.125 C-215.83 406.785 -216.16 407.445 -216.5 408.125 C-217.16 408.125 -217.82 408.125 -218.5 408.125 C-218.5 408.785 -218.5 409.445 -218.5 410.125 C-220.375 412.25 -220.375 412.25 -222.5 414.125 C-223.16 414.125 -223.82 414.125 -224.5 414.125 C-224.83 415.115 -225.16 416.105 -225.5 417.125 C-226.16 417.125 -226.82 417.125 -227.5 417.125 C-227.5 417.785 -227.5 418.445 -227.5 419.125 C-228.16 419.125 -228.82 419.125 -229.5 419.125 C-229.5 419.785 -229.5 420.445 -229.5 421.125 C-230.16 421.125 -230.82 421.125 -231.5 421.125 C-231.5 421.785 -231.5 422.445 -231.5 423.125 C-232.16 423.125 -232.82 423.125 -233.5 423.125 C-233.83 424.115 -234.16 425.105 -234.5 426.125 C-236.4375 428.3125 -236.4375 428.3125 -238.5 430.125 C-239.16 430.125 -239.82 430.125 -240.5 430.125 C-240.5 430.785 -240.5 431.445 -240.5 432.125 C-241.16 432.125 -241.82 432.125 -242.5 432.125 C-242.5 432.785 -242.5 433.445 -242.5 434.125 C-243.16 434.125 -243.82 434.125 -244.5 434.125 C-244.5 434.785 -244.5 435.445 -244.5 436.125 C-245.16 436.125 -245.82 436.125 -246.5 436.125 C-246.8403125 436.99125 -246.8403125 436.99125 -247.1875 437.875 C-248.83199647 440.69413681 -250.9355467 442.13754869 -253.5 444.125 C-254.16 445.115 -254.82 446.105 -255.5 447.125 C-256.16 447.125 -256.82 447.125 -257.5 447.125 C-257.5 447.785 -257.5 448.445 -257.5 449.125 C-258.16 449.125 -258.82 449.125 -259.5 449.125 C-259.768125 449.764375 -260.03625 450.40375 -260.3125 451.0625 C-261.5 453.125 -261.5 453.125 -264.5 454.125 C-264.5 454.785 -264.5 455.445 -264.5 456.125 C-265.16 456.125 -265.82 456.125 -266.5 456.125 C-266.5 456.785 -266.5 457.445 -266.5 458.125 C-267.16 458.125 -267.82 458.125 -268.5 458.125 C-268.83 459.115 -269.16 460.105 -269.5 461.125 C-270.16 461.125 -270.82 461.125 -271.5 461.125 C-271.83 462.115 -272.16 463.105 -272.5 464.125 C-273.9375 465.8125 -273.9375 465.8125 -275.5 467.125 C-276.16 467.125 -276.82 467.125 -277.5 467.125 C-277.5 467.785 -277.5 468.445 -277.5 469.125 C-278.16 469.125 -278.82 469.125 -279.5 469.125 C-279.5 469.785 -279.5 470.445 -279.5 471.125 C-280.16 471.125 -280.82 471.125 -281.5 471.125 C-281.768125 471.723125 -282.03625 472.32125 -282.3125 472.9375 C-283.49917406 475.12347854 -284.59599113 476.53832594 -286.5 478.125 C-287.16 478.125 -287.82 478.125 -288.5 478.125 C-288.5 478.785 -288.5 479.445 -288.5 480.125 C-289.16 480.125 -289.82 480.125 -290.5 480.125 C-290.5 480.785 -290.5 481.445 -290.5 482.125 C-291.16 482.125 -291.82 482.125 -292.5 482.125 C-292.83 483.115 -293.16 484.105 -293.5 485.125 C-295.12102968 486.83608689 -296.79503463 488.49753306 -298.5 490.125 C-299.386875 491.053125 -300.27375 491.98125 -301.1875 492.9375 C-303.5 495.125 -303.5 495.125 -305.5 495.125 C-305.768125 495.723125 -306.03625 496.32125 -306.3125 496.9375 C-307.49917406 499.12347854 -308.59599113 500.53832594 -310.5 502.125 C-311.16 502.125 -311.82 502.125 -312.5 502.125 C-312.5 502.785 -312.5 503.445 -312.5 504.125 C-313.16 504.125 -313.82 504.125 -314.5 504.125 C-314.8403125 504.9603125 -314.8403125 504.9603125 -315.1875 505.8125 C-317.61420254 510.08811877 -320.93250373 513.26416819 -325.5 515.125 C-325.5 515.785 -325.5 516.445 -325.5 517.125 C-326.16 517.125 -326.82 517.125 -327.5 517.125 C-327.9021875 518.0221875 -327.9021875 518.0221875 -328.3125 518.9375 C-329.50572423 521.13554464 -330.74678871 522.37178871 -332.5 524.125 C-332.974375 524.929375 -333.44875 525.73375 -333.9375 526.5625 C-335.53821633 529.18767478 -337.33555402 530.96055402 -339.5 533.125 C-340.55771739 534.75564764 -341.55273046 536.42780873 -342.5 538.125 C-344.4238167 541.51600765 -346.33573473 544.87860209 -348.5 548.125 C-350.17298162 553.06542947 -350.92020764 557.81465303 -351.1875 563 C-351.22584961 563.70181396 -351.26419922 564.40362793 -351.30371094 565.12670898 C-351.86985495 577.24695545 -348.86894245 585.80437048 -342.5 596.125 C-341.84 596.785 -341.18 597.445 -340.5 598.125 C-340.5 599.445 -340.5 600.765 -340.5 602.125 C-339.84 602.125 -339.18 602.125 -338.5 602.125 C-338.5 602.785 -338.5 603.445 -338.5 604.125 C-337.84 604.125 -337.18 604.125 -336.5 604.125 C-336.5 604.785 -336.5 605.445 -336.5 606.125 C-335.51 606.455 -334.52 606.785 -333.5 607.125 C-333.231875 607.8675 -332.96375 608.61 -332.6875 609.375 C-331.46928432 612.19613105 -330.70692246 612.97208345 -328.375 614.8125 C-327.42625 615.575625 -326.4775 616.33875 -325.5 617.125 C-325.5 617.785 -325.5 618.445 -325.5 619.125 C-324.84 619.125 -324.18 619.125 -323.5 619.125 C-322.31311994 620.5043471 -321.1289022 621.88784003 -320.01171875 623.32421875 C-317.98451274 625.73905588 -315.74238102 627.91317376 -313.5 630.125 C-312.00955169 631.61371785 -310.52006499 633.10339872 -309.03125 634.59375 C-308.21269531 635.41230469 -307.39414062 636.23085938 -306.55078125 637.07421875 C-268.5 675.125 -268.5 675.125 -266.16661197 677.45891178 C-263.58503327 680.03998344 -261.00194028 682.61952662 -258.41819286 685.1984272 C-257.40182245 686.21292815 -256.38545239 687.22742947 -255.36908263 688.24193108 C-254.83033173 688.77967546 -254.29158084 689.31741984 -253.73650416 689.8714595 C-250.73358257 692.86880006 -247.73077747 695.86625731 -244.72796631 698.8637085 C-244.08257243 699.5079497 -243.43717854 700.15219091 -242.77222727 700.81595457 C-213.100231 730.43512237 -183.4358186 760.06187339 -153.77728365 789.69452036 C-149.49505294 793.97299921 -145.21275668 798.25141245 -140.93041992 802.52978516 C-139.65168745 803.80733723 -139.65168745 803.80733723 -138.34712199 805.11069845 C-124.51324055 818.93149808 -110.67407298 832.74699302 -96.83297577 846.56056584 C-82.62980532 860.73572671 -68.43229543 874.91653837 -54.2400735 889.10266101 C-45.48086842 897.85774228 -36.71723077 906.60833832 -27.94793645 915.35331415 C-21.94613721 921.33931106 -15.94982225 927.33076484 -9.95787372 933.32662214 C-6.49640686 936.79001879 -3.03249705 940.2508802 0.43792343 943.70530701 C3.61023262 946.8631019 6.77564572 950.0276378 9.93554559 953.1978489 C11.08417322 954.34775234 12.23538166 955.49508434 13.38931397 956.63966443 C14.94898131 958.18741595 16.49926045 959.74398446 18.04739857 961.30325508 C18.91348832 962.16820567 19.77957807 963.03315626 20.67191297 963.92431748 C22.5 966.125 22.5 966.125 22.5 969.125 C23.16 969.125 23.82 969.125 24.5 969.125 C25.76953125 970.41796875 25.76953125 970.41796875 27.3125 972.3125 C31.25903316 976.98492827 35.56731128 981.22816764 39.96801758 985.4675293 C43.0629585 988.49710036 45.35236054 991.32781818 47.5 995.125 C48.95833358 996.75014468 48.95833358 996.75014468 50.5 998.125 C53.88499948 1001.40134517 55.8699065 1004.83741764 57.9375 1009.0625 C59.42034482 1012.14155224 59.42034482 1012.14155224 61.375 1014.8125 C64.2870444 1019.35186333 66.38149328 1024.17461184 68.5 1029.125 C68.83773437 1029.87652344 69.17546875 1030.62804688 69.5234375 1031.40234375 C72.6648927 1040.16072084 72.84230659 1048.65059529 72.81567383 1057.8359375 C72.81250655 1060.12027437 72.83606284 1062.40332173 72.86132812 1064.6875 C72.89444503 1072.30428387 72.6132505 1079.05287679 69.5 1086.125 C69.149375 1087.17429687 68.79875 1088.22359375 68.4375 1089.3046875 C68.128125 1090.19414063 67.81875 1091.08359375 67.5 1092 C67.190625 1092.90492187 66.88125 1093.80984375 66.5625 1094.7421875 C65.48454019 1097.1596709 64.43856133 1098.37254056 62.5 1100.125 C61.47388051 1101.77571396 60.47691857 1103.44470006 59.5 1105.125 C55.46818066 1111.65932789 51.17843229 1116.33453843 44.5 1120.125 C44.02433594 1120.60839844 43.54867187 1121.09179688 43.05859375 1121.58984375 C35.37080986 1129.16202187 19.84431707 1132.55620814 9.4765625 1132.984375 C7.49842095 1132.90819812 7.49842095 1132.90819812 6.5 1134.125 C4.33519203 1134.2239294 2.16706215 1134.254711 0 1134.25 C-1.1859375 1134.25257812 -2.371875 1134.25515625 -3.59375 1134.2578125 C-6.5 1134.125 -6.5 1134.125 -7.5 1133.125 C-9.18455421 1132.96513018 -10.87319344 1132.84759405 -12.5625 1132.75 C-17.00234687 1132.38814961 -20.60240235 1131.59676513 -24.6875 1129.8671875 C-26.70001425 1128.99259228 -26.70001425 1128.99259228 -29.75 1128.3125 C-37.59910318 1125.82695066 -44.74949541 1121.78606269 -51.5 1117.125 C-52.5725 1116.63 -53.645 1116.135 -54.75 1115.625 C-57.65364077 1114.04119594 -58.44249153 1113.19177455 -59.5 1110.125 C-60.16 1110.125 -60.82 1110.125 -61.5 1110.125 C-61.5 1109.465 -61.5 1108.805 -61.5 1108.125 C-62.2115625 1108.07085938 -62.923125 1108.01671875 -63.65625 1107.9609375 C-67.42596076 1106.85280824 -69.42371379 1104.56443031 -72 1101.75 C-75.50248115 1097.89397131 -75.50248115 1097.89397131 -79.72053736 1094.89215046 C-83.54612071 1092.45988845 -86.50542056 1089.39377734 -89.69015217 1086.18653011 C-90.40672671 1085.47286245 -91.12330125 1084.75919479 -91.86159018 1084.02390084 C-94.27385314 1081.61896654 -96.67889588 1079.20693826 -99.08406067 1076.79490662 C-100.82449312 1075.05677744 -102.56536151 1073.31908468 -104.30662936 1071.58179241 C-108.09777895 1067.79726653 -111.88578672 1064.00963643 -115.67107582 1060.21925163 C-121.29973043 1054.58304035 -126.93407874 1048.95254685 -132.56957084 1043.32317322 C-142.63278387 1033.27049916 -152.69025952 1023.21210041 -162.74531682 1013.15126942 C-171.5426946 1004.34886476 -180.3419237 995.54831606 -189.14301109 986.74962044 C-189.72631939 986.16646491 -190.30962769 985.58330939 -190.91061199 984.98248248 C-193.27829163 982.61542549 -195.64597834 980.24837558 -198.01367669 977.88133731 C-220.23073618 955.6703979 -242.44195521 933.45362613 -264.65057347 911.23424674 C-284.39683413 891.47849088 -304.14826401 871.72791714 -323.90405273 851.98168945 C-346.08674925 829.80969257 -368.26622338 807.63448045 -390.44047755 785.45404011 C-392.80233457 783.09154163 -395.16419948 780.72905104 -397.52606773 778.3665638 C-398.10764158 777.78483179 -398.68921543 777.20309979 -399.28841274 776.60373954 C-408.08534472 767.80452899 -416.88474881 759.0077957 -425.68534279 750.21224785 C-435.6858603 740.21743581 -445.6828233 730.21908397 -455.67504809 720.21598106 C-461.27303739 714.61209925 -466.87378965 709.01101221 -472.47848462 703.41383687 C-476.65194283 699.24536285 -480.82021139 695.07172759 -484.98639258 690.89597977 C-486.68098204 689.19914025 -488.37729253 687.50401754 -490.07541261 685.81071132 C-492.36790048 683.52422869 -494.65425488 681.23179096 -496.93905354 678.93762875 C-497.61305373 678.26831089 -498.28705392 677.59899302 -498.98147836 676.9093928 C-503.5 672.3533008 -503.5 672.3533008 -503.5 670.125 C-504.31210937 669.80015625 -504.31210937 669.80015625 -505.140625 669.46875 C-508.31645344 667.66000003 -510.70728081 665.20776201 -513.25 662.625 C-513.75660156 662.12613281 -514.26320313 661.62726562 -514.78515625 661.11328125 C-518.5 657.37841139 -518.5 657.37841139 -518.5 655.125 C-519.098125 654.856875 -519.69625 654.58875 -520.3125 654.3125 C-522.54237457 653.10199666 -523.95490692 652.133621 -525.5 650.125 C-525.5 648.805 -525.5 647.485 -525.5 646.125 C-526.16 646.125 -526.82 646.125 -527.5 646.125 C-529.0859375 644.515625 -529.0859375 644.515625 -530.875 642.375 C-532.77868633 640.12770223 -534.63662327 637.99217182 -536.75 635.9375 C-538.76243743 633.85318981 -540.03195328 631.61429662 -541.5 629.125 C-542.2425 628.3825 -542.2425 628.3825 -543 627.625 C-544.94735868 625.67764132 -546.10106311 623.49740635 -547.5 621.125 C-548.02980469 620.28839844 -548.55960938 619.45179688 -549.10546875 618.58984375 C-549.62753906 617.75582031 -550.14960937 616.92179688 -550.6875 616.0625 C-551.21730469 615.22589844 -551.74710938 614.38929688 -552.29296875 613.52734375 C-553.5 611.125 -553.5 611.125 -553.5 607.125 C-554.49 606.795 -555.48 606.465 -556.5 606.125 C-557.28369141 604.46679687 -557.28369141 604.46679687 -557.8515625 602.34375 C-558.16867187 601.20486328 -558.16867187 601.20486328 -558.4921875 600.04296875 C-558.70101562 599.24503906 -558.90984375 598.44710937 -559.125 597.625 C-560.11304697 592.47113717 -560.11304697 592.47113717 -562.5 588.125 C-562.82595547 584.50327258 -563.01380536 580.8804479 -563.21875 577.25 C-563.15135448 574.2600199 -563.15135448 574.2600199 -564.5 573.125 C-564.59873816 571.12700428 -564.62971799 569.12542842 -564.625 567.125 C-564.62757813 566.031875 -564.63015625 564.93875 -564.6328125 563.8125 C-564.5 561.125 -564.5 561.125 -563.5 560.125 C-563.31403613 558.25355409 -563.1766224 556.37719696 -563.0625 554.5 C-562.69467303 549.76283442 -562.03342655 545.644573 -560.5 541.125 C-560.03013672 539.63033203 -560.03013672 539.63033203 -559.55078125 538.10546875 C-556.77188589 529.39688589 -556.77188589 529.39688589 -554.5 527.125 C-553.8574765 525.05625966 -553.8574765 525.05625966 -553.5 523.125 C-552.84 523.125 -552.18 523.125 -551.5 523.125 C-551.4175 522.42375 -551.335 521.7225 -551.25 521 C-550.31706355 517.42374363 -548.6439951 515.12659313 -546.5 512.125 C-545.84 511.114375 -545.18 510.10375 -544.5 509.0625 C-539.91241439 502.32448364 -534.51524886 496.00915109 -528.625 490.375 C-526.44676353 488.06863197 -526.09707311 487.11036554 -525.5 484.125 C-524.0625 482.375 -524.0625 482.375 -522.5 481.125 C-521.84 481.125 -521.18 481.125 -520.5 481.125 C-520.5 480.465 -520.5 479.805 -520.5 479.125 C-519.84 479.125 -519.18 479.125 -518.5 479.125 C-518.5 478.465 -518.5 477.805 -518.5 477.125 C-517.84 477.125 -517.18 477.125 -516.5 477.125 C-516.5 476.465 -516.5 475.805 -516.5 475.125 C-514.92578125 473.609375 -514.92578125 473.609375 -512.8125 471.875 C-510.14650867 469.62424272 -507.78989909 467.42450455 -505.625 464.6875 C-504.92375 463.841875 -504.2225 462.99625 -503.5 462.125 C-502.84 462.125 -502.18 462.125 -501.5 462.125 C-501.17 461.135 -500.84 460.145 -500.5 459.125 C-499.84 459.125 -499.18 459.125 -498.5 459.125 C-498.5 458.465 -498.5 457.805 -498.5 457.125 C-497.84 457.125 -497.18 457.125 -496.5 457.125 C-496.5 456.465 -496.5 455.805 -496.5 455.125 C-495.84 455.125 -495.18 455.125 -494.5 455.125 C-494.5 454.465 -494.5 453.805 -494.5 453.125 C-493.84 453.125 -493.18 453.125 -492.5 453.125 C-492.5 452.465 -492.5 451.805 -492.5 451.125 C-490.125 448.5 -490.125 448.5 -487.5 446.125 C-486.84 446.125 -486.18 446.125 -485.5 446.125 C-485.5 445.465 -485.5 444.805 -485.5 444.125 C-484.84 444.125 -484.18 444.125 -483.5 444.125 C-483.5 443.465 -483.5 442.805 -483.5 442.125 C-482.84 442.125 -482.18 442.125 -481.5 442.125 C-481.5 441.465 -481.5 440.805 -481.5 440.125 C-479.85546875 438.5390625 -479.85546875 438.5390625 -477.6875 436.75 C-475.43749143 434.88933718 -473.59649715 433.25627297 -471.86328125 430.8984375 C-471.41339844 430.31320312 -470.96351563 429.72796875 -470.5 429.125 C-469.84 429.125 -469.18 429.125 -468.5 429.125 C-468.5 428.465 -468.5 427.805 -468.5 427.125 C-466.125 424.5 -466.125 424.5 -463.5 422.125 C-462.84 422.125 -462.18 422.125 -461.5 422.125 C-461.5 421.465 -461.5 420.805 -461.5 420.125 C-460.84 420.125 -460.18 420.125 -459.5 420.125 C-459.5 419.465 -459.5 418.805 -459.5 418.125 C-458.84 418.125 -458.18 418.125 -457.5 418.125 C-457.5 417.465 -457.5 416.805 -457.5 416.125 C-455.51739574 414.43767723 -453.5167658 412.77133943 -451.5 411.125 C-451.17 410.465 -450.84 409.805 -450.5 409.125 C-449.84 409.125 -449.18 409.125 -448.5 409.125 C-448.5 408.465 -448.5 407.805 -448.5 407.125 C-447.02307016 405.8778148 -445.54202596 404.63464765 -444.02734375 403.43359375 C-442.20225929 401.86990246 -440.92509913 400.04888382 -439.5 398.125 C-438.84 398.125 -438.18 398.125 -437.5 398.125 C-437.5 397.465 -437.5 396.805 -437.5 396.125 C-436.84 396.125 -436.18 396.125 -435.5 396.125 C-435.5 395.465 -435.5 394.805 -435.5 394.125 C-434.84 394.125 -434.18 394.125 -433.5 394.125 C-433.17 393.135 -432.84 392.145 -432.5 391.125 C-429.94300882 388.34883815 -427.23436352 385.87759482 -424.3125 383.5 C-421.38119654 381.24777665 -421.38119654 381.24777665 -419.5 378.125 C-418.84 378.125 -418.18 378.125 -417.5 378.125 C-416.84 376.805 -416.18 375.485 -415.5 374.125 C-414.84 374.125 -414.18 374.125 -413.5 374.125 C-413.5 373.465 -413.5 372.805 -413.5 372.125 C-412.84 372.125 -412.18 372.125 -411.5 372.125 C-411.1596875 371.2896875 -411.1596875 371.2896875 -410.8125 370.4375 C-408.38579746 366.16188123 -405.06749627 362.98583181 -400.5 361.125 C-400.5 360.465 -400.5 359.805 -400.5 359.125 C-399.84 359.125 -399.18 359.125 -398.5 359.125 C-398.231875 358.485625 -397.96375 357.84625 -397.6875 357.1875 C-396.5 355.125 -396.5 355.125 -393.5 354.125 C-393.0359375 353.1659375 -393.0359375 353.1659375 -392.5625 352.1875 C-391.2657662 349.67031085 -390.0778263 349.15613052 -387.5 348.125 C-387.5 347.465 -387.5 346.805 -387.5 346.125 C-386.84 346.125 -386.18 346.125 -385.5 346.125 C-385.17 345.135 -384.84 344.145 -384.5 343.125 C-383.84 343.125 -383.18 343.125 -382.5 343.125 C-382.2628125 342.56296875 -382.025625 342.0009375 -381.78125 341.421875 C-380.21052303 338.60605958 -378.28528536 336.64544584 -376 334.375 C-375.2059375 333.57578125 -374.411875 332.7765625 -373.59375 331.953125 C-371.5 330.125 -371.5 330.125 -369.5 330.125 C-368.84 328.805 -368.18 327.485 -367.5 326.125 C-366.84 326.125 -366.18 326.125 -365.5 326.125 C-365.231875 325.526875 -364.96375 324.92875 -364.6875 324.3125 C-363.50082594 322.12652146 -362.40400887 320.71167406 -360.5 319.125 C-359.84 319.125 -359.18 319.125 -358.5 319.125 C-358.5 318.465 -358.5 317.805 -358.5 317.125 C-357.84 317.125 -357.18 317.125 -356.5 317.125 C-356.5 316.465 -356.5 315.805 -356.5 315.125 C-355.84 315.125 -355.18 315.125 -354.5 315.125 C-354.5 314.465 -354.5 313.805 -354.5 313.125 C-353.84 313.125 -353.18 313.125 -352.5 313.125 C-352.231875 312.526875 -351.96375 311.92875 -351.6875 311.3125 C-350.50082594 309.12652146 -349.40400887 307.71167406 -347.5 306.125 C-346.84 306.125 -346.18 306.125 -345.5 306.125 C-345.2525 305.50625 -345.005 304.8875 -344.75 304.25 C-343.26259631 301.72141373 -342.06321991 301.40660996 -339.5 300.125 C-338.81731862 298.79979497 -338.1492959 297.46687818 -337.5 296.125 C-336.51 295.795 -335.52 295.465 -334.5 295.125 C-333.81513275 293.80092331 -333.15129797 292.46590759 -332.5 291.125 C-330.5 288.875 -330.5 288.875 -328.5 287.125 C-327.84 287.125 -327.18 287.125 -326.5 287.125 C-326.231875 286.485625 -325.96375 285.84625 -325.6875 285.1875 C-324.5 283.125 -324.5 283.125 -321.5 282.125 C-321.5 281.465 -321.5 280.805 -321.5 280.125 C-320.84 280.125 -320.18 280.125 -319.5 280.125 C-319.2421875 279.54234375 -318.984375 278.9596875 -318.71875 278.359375 C-317.40165983 275.9447097 -315.94911616 274.30759823 -314 272.375 C-313.3915625 271.76140625 -312.783125 271.1478125 -312.15625 270.515625 C-310.5 269.125 -310.5 269.125 -308.5 269.125 C-308.5 268.465 -308.5 267.805 -308.5 267.125 C-307.84 267.125 -307.18 267.125 -306.5 267.125 C-306.5 266.465 -306.5 265.805 -306.5 265.125 C-305.84 265.125 -305.18 265.125 -304.5 265.125 C-304.29439453 264.59487305 -304.08878906 264.06474609 -303.87695312 263.51855469 C-301.92575616 260.12679316 -299.22455618 257.56449413 -296.46875 254.828125 C-295.87703003 254.23449158 -295.28531006 253.64085815 -294.67565918 253.02923584 C-293.42734419 251.77956282 -292.17651177 250.53240008 -290.92333984 249.28759766 C-288.99992003 247.37492048 -287.08743901 245.45176881 -285.17578125 243.52734375 C-283.96157861 242.31446202 -282.74675607 241.10220048 -281.53125 239.890625 C-280.95725464 239.31258118 -280.38325928 238.73453735 -279.79187012 238.13897705 C-275.72993434 234.125 -275.72993434 234.125 -273.5 234.125 C-273.17515625 233.31289063 -273.17515625 233.31289063 -272.84375 232.484375 C-271.03500003 229.30854656 -268.58276201 226.91771919 -266 224.375 C-265.50113281 223.86839844 -265.00226563 223.36179687 -264.48828125 222.83984375 C-260.75341139 219.125 -260.75341139 219.125 -258.5 219.125 C-258.2628125 218.56296875 -258.025625 218.0009375 -257.78125 217.421875 C-256.21052303 214.60605958 -254.28528536 212.64544584 -252 210.375 C-250.80890625 209.17617188 -250.80890625 209.17617188 -249.59375 207.953125 C-247.5 206.125 -247.5 206.125 -245.5 206.125 C-245.22734892 205.52765509 -244.95469784 204.93031019 -244.67378461 204.31486392 C-243.52921463 202.17950408 -242.420022 200.79262047 -240.71944618 199.08717728 C-240.1501374 198.5114196 -239.58082862 197.93566193 -238.99426806 197.34245706 C-238.36859765 196.71988385 -237.74292724 196.09731064 -237.09829712 195.45587158 C-236.4337915 194.78683485 -235.76928588 194.11779811 -235.08464372 193.42848754 C-232.8523683 191.18353183 -230.61298377 188.94580631 -228.37353516 186.70800781 C-226.77343738 185.10192723 -225.17375141 183.49543629 -223.57444763 181.88856506 C-219.22603228 177.52246134 -214.87112642 173.16288738 -210.51449633 168.80498219 C-206.88193084 165.17051959 -203.25209891 161.53333263 -199.62213266 157.89627433 C-191.5512729 149.81005444 -183.4757343 141.72853903 -175.39651795 133.65067032 C-174.91181937 133.16605165 -174.42712079 132.68143299 -173.92773438 132.18212891 C-173.44244441 131.6969207 -172.95715445 131.2117125 -172.45715873 130.71180102 C-164.58527728 122.84073321 -156.72342952 114.95972722 -148.86605866 107.07417646 C-140.80070816 98.98012828 -132.7277807 90.89372305 -124.647385 82.81469035 C-120.10982841 78.27764485 -115.57546392 73.73751541 -111.04872513 69.18967438 C-106.79435952 64.91601877 -102.53059521 60.65197429 -98.25927925 56.39526176 C-96.69004675 54.82812969 -95.1242509 53.25754798 -93.56209755 51.68335915 C-91.43569991 49.54163866 -89.29746624 47.41249865 -87.15567017 45.28619385 C-86.5344612 44.65469775 -85.91325223 44.02320166 -85.27321875 43.37256932 C-80.95654353 39.125 -80.95654353 39.125 -76.5 39.125 C-76.12875 38.25875 -76.12875 38.25875 -75.75 37.375 C-74.31700012 34.79560021 -72.71575324 33.06378408 -70.5 31.125 C-69.84 31.125 -69.18 31.125 -68.5 31.125 C-68.1596875 30.1659375 -68.1596875 30.1659375 -67.8125 29.1875 C-66.5 27.125 -66.5 27.125 -63.875 26.375 C-63.09125 26.2925 -62.3075 26.21 -61.5 26.125 C-61.5 25.465 -61.5 24.805 -61.5 24.125 C-60.84 24.125 -60.18 24.125 -59.5 24.125 C-59.5 23.465 -59.5 22.805 -59.5 22.125 C-57.36200751 20.56955041 -55.23944074 19.14546605 -53 17.75 C-52.3601416 17.346604 -51.7202832 16.94320801 -51.06103516 16.52758789 C-39.19947314 9.125 -39.19947314 9.125 -33.5 9.125 C-33.17 8.135 -32.84 7.145 -32.5 6.125 C-29.84765625 5.2109375 -29.84765625 5.2109375 -26.5625 4.5 C-22.41199118 3.64915804 -22.41199118 3.64915804 -18.5 2.125 C-15.68056784 1.81172976 -12.86021918 1.61470036 -10.03125 1.40625 C-6.43835251 1.00703917 -3.76875688 -0.00991778 0 0 Z " fill="#FAFCFC" transform="translate(638.5,73.875)"/>
<path d="M0 0 C0.9796875 -0.00257812 1.959375 -0.00515625 2.96875 -0.0078125 C5.5 0.125 5.5 0.125 7.5 1.125 C9.02001321 1.2050007 10.54116466 1.26372436 12.0625 1.3125 C20.70258176 1.99037875 29.76253202 5.25626601 37.5 9.125 C37.5 9.785 37.5 10.445 37.5 11.125 C38.2425 11.2075 38.985 11.29 39.75 11.375 C43.0754827 12.28194983 44.16456187 13.64359699 46.5 16.125 C47.28375 16.57875 48.0675 17.0325 48.875 17.5 C54.03240614 20.69267999 57.58720005 24.8290001 60.5 30.125 C61.139375 31.053125 61.77875 31.98125 62.4375 32.9375 C67.39525344 40.59948259 70.87214128 47.82146802 70.5 57.125 C71.16 57.125 71.82 57.125 72.5 57.125 C72.57497978 61.76567173 72.62898734 66.40597954 72.66479492 71.04711914 C72.67974517 72.62107497 72.70011294 74.19499015 72.72631836 75.76879883 C72.87625827 85.01509352 72.73691897 93.32305207 69.5 102.125 C69.05140625 103.35089844 68.6028125 104.57679688 68.140625 105.83984375 C62.42357127 119.088634 55.72660728 130.89839272 45.5 141.125 C45.11457031 141.83914062 44.72914063 142.55328125 44.33203125 143.2890625 C41.71240485 147.34417714 38.33038389 150.46428497 34.875 153.8125 C33.50563196 155.14750657 32.13833731 156.48464423 30.7734375 157.82421875 C30.16935059 158.41033936 29.56526367 158.99645996 28.94287109 159.6003418 C27.40029892 161.0827594 27.40029892 161.0827594 26.5 163.125 C25.84 163.125 25.18 163.125 24.5 163.125 C24.39192017 163.72138275 24.28384033 164.3177655 24.17248535 164.93222046 C23.41368062 167.40646244 22.57283622 168.41165102 20.74023438 170.20947266 C20.16293579 170.78331696 19.58563721 171.35716125 18.99084473 171.94839478 C18.36480347 172.55581512 17.73876221 173.16323547 17.09375 173.7890625 C16.13390198 174.73898575 16.13390198 174.73898575 15.15466309 175.70809937 C13.11007825 177.72928173 11.05560537 179.74003205 9 181.75 C6.9461563 183.768805 4.89445443 185.78972205 2.84533691 187.81332397 C1.56975049 189.0719066 0.29110049 190.32739309 -0.99084473 191.57949829 C-4.13416657 194.55266135 -4.13416657 194.55266135 -6.5 198.125 C-7.16 198.125 -7.82 198.125 -8.5 198.125 C-8.5 198.785 -8.5 199.445 -8.5 200.125 C-9.94458008 201.54833984 -9.94458008 201.54833984 -11.95703125 203.2109375 C-16.60791317 207.16638916 -20.89735826 211.41001747 -25.1875 215.75 C-25.92033203 216.48734375 -26.65316406 217.2246875 -27.40820312 217.984375 C-28.82633833 219.41146146 -30.24353042 220.83948589 -31.65966797 222.26855469 C-33.93254077 224.56132794 -36.21542289 226.84388962 -38.5 229.125 C-39.98967072 230.61449594 -41.47924281 232.10409053 -42.96875 233.59375 C-46.32291667 236.94791667 -49.67708333 240.30208333 -53.03125 243.65625 C-53.81072998 244.43653564 -54.59020996 245.21682129 -55.39331055 246.02075195 C-56.64143602 247.267431 -57.89195782 248.51173094 -59.14770508 249.75073242 C-60.99948035 251.57890101 -62.64913138 253.32936523 -64.1875 255.4375 C-64.620625 255.994375 -65.05375 256.55125 -65.5 257.125 C-66.16 257.125 -66.82 257.125 -67.5 257.125 C-67.5 257.785 -67.5 258.445 -67.5 259.125 C-69.14351457 260.48676922 -70.81522656 261.81462066 -72.5 263.125 C-75.18835251 265.67893489 -77.62511257 268.27513508 -80 271.125 C-82.37353344 273.97324012 -84.77004182 276.61638978 -87.5 279.125 C-88.16 279.125 -88.82 279.125 -89.5 279.125 C-89.5 279.785 -89.5 280.445 -89.5 281.125 C-90.16 281.125 -90.82 281.125 -91.5 281.125 C-91.5 281.785 -91.5 282.445 -91.5 283.125 C-92.16 283.125 -92.82 283.125 -93.5 283.125 C-93.5 283.785 -93.5 284.445 -93.5 285.125 C-94.79296875 286.39453125 -94.79296875 286.39453125 -96.6875 287.9375 C-100.79538925 291.42477289 -104.6282851 295.13143018 -108.4375 298.9375 C-109.01717529 299.51282471 -109.59685059 300.08814941 -110.1940918 300.6809082 C-113.21650553 303.62226058 -113.21650553 303.62226058 -115.5 307.125 C-116.16 307.125 -116.82 307.125 -117.5 307.125 C-117.5 307.785 -117.5 308.445 -117.5 309.125 C-119.875 311.75 -119.875 311.75 -122.5 314.125 C-123.16 314.125 -123.82 314.125 -124.5 314.125 C-124.5 314.785 -124.5 315.445 -124.5 316.125 C-125.16 316.125 -125.82 316.125 -126.5 316.125 C-126.5 316.785 -126.5 317.445 -126.5 318.125 C-128.00390625 319.5703125 -128.00390625 319.5703125 -130.0625 321.25 C-133.7052848 324.33928747 -136.80532565 327.62799631 -139.8984375 331.2578125 C-141.99216906 333.6987971 -144.12573001 335.95423886 -146.5 338.125 C-147.16 338.125 -147.82 338.125 -148.5 338.125 C-148.5 338.785 -148.5 339.445 -148.5 340.125 C-149.16 340.125 -149.82 340.125 -150.5 340.125 C-150.5 340.785 -150.5 341.445 -150.5 342.125 C-151.16 342.125 -151.82 342.125 -152.5 342.125 C-152.5 342.785 -152.5 343.445 -152.5 344.125 C-154.14351457 345.48676922 -155.81522656 346.81462066 -157.5 348.125 C-160.12325838 350.62029455 -162.46362446 353.07823145 -164.6875 355.9375 C-165.285625 356.659375 -165.88375 357.38125 -166.5 358.125 C-167.16 358.125 -167.82 358.125 -168.5 358.125 C-168.5 358.785 -168.5 359.445 -168.5 360.125 C-170.375 362.25 -170.375 362.25 -172.5 364.125 C-173.16 364.125 -173.82 364.125 -174.5 364.125 C-174.5 364.785 -174.5 365.445 -174.5 366.125 C-175.16 366.125 -175.82 366.125 -176.5 366.125 C-176.5 366.785 -176.5 367.445 -176.5 368.125 C-178.875 370.75 -178.875 370.75 -181.5 373.125 C-182.16 373.125 -182.82 373.125 -183.5 373.125 C-183.5 373.785 -183.5 374.445 -183.5 375.125 C-184.16 375.125 -184.82 375.125 -185.5 375.125 C-185.5 375.785 -185.5 376.445 -185.5 377.125 C-187.07421875 378.640625 -187.07421875 378.640625 -189.1875 380.375 C-191.85349133 382.62575728 -194.21010091 384.82549545 -196.375 387.5625 C-197.07625 388.408125 -197.7775 389.25375 -198.5 390.125 C-199.16 390.125 -199.82 390.125 -200.5 390.125 C-200.5 390.785 -200.5 391.445 -200.5 392.125 C-201.875 393.75 -201.875 393.75 -203.5 395.125 C-204.16 395.125 -204.82 395.125 -205.5 395.125 C-206.16 396.445 -206.82 397.765 -207.5 399.125 C-208.16 399.125 -208.82 399.125 -209.5 399.125 C-209.5 399.785 -209.5 400.445 -209.5 401.125 C-211.48260426 402.81232277 -213.4832342 404.47866057 -215.5 406.125 C-215.83 406.785 -216.16 407.445 -216.5 408.125 C-217.16 408.125 -217.82 408.125 -218.5 408.125 C-218.5 408.785 -218.5 409.445 -218.5 410.125 C-220.375 412.25 -220.375 412.25 -222.5 414.125 C-223.16 414.125 -223.82 414.125 -224.5 414.125 C-224.83 415.115 -225.16 416.105 -225.5 417.125 C-226.16 417.125 -226.82 417.125 -227.5 417.125 C-227.5 417.785 -227.5 418.445 -227.5 419.125 C-228.16 419.125 -228.82 419.125 -229.5 419.125 C-229.5 419.785 -229.5 420.445 -229.5 421.125 C-230.16 421.125 -230.82 421.125 -231.5 421.125 C-231.5 421.785 -231.5 422.445 -231.5 423.125 C-232.16 423.125 -232.82 423.125 -233.5 423.125 C-233.83 424.115 -234.16 425.105 -234.5 426.125 C-236.4375 428.3125 -236.4375 428.3125 -238.5 430.125 C-239.16 430.125 -239.82 430.125 -240.5 430.125 C-240.5 430.785 -240.5 431.445 -240.5 432.125 C-241.16 432.125 -241.82 432.125 -242.5 432.125 C-242.5 432.785 -242.5 433.445 -242.5 434.125 C-243.16 434.125 -243.82 434.125 -244.5 434.125 C-244.5 434.785 -244.5 435.445 -244.5 436.125 C-245.16 436.125 -245.82 436.125 -246.5 436.125 C-246.8403125 436.99125 -246.8403125 436.99125 -247.1875 437.875 C-248.83199647 440.69413681 -250.9355467 442.13754869 -253.5 444.125 C-254.16 445.115 -254.82 446.105 -255.5 447.125 C-256.16 447.125 -256.82 447.125 -257.5 447.125 C-257.5 447.785 -257.5 448.445 -257.5 449.125 C-258.16 449.125 -258.82 449.125 -259.5 449.125 C-259.768125 449.764375 -260.03625 450.40375 -260.3125 451.0625 C-261.5 453.125 -261.5 453.125 -264.5 454.125 C-264.5 454.785 -264.5 455.445 -264.5 456.125 C-265.16 456.125 -265.82 456.125 -266.5 456.125 C-266.5 456.785 -266.5 457.445 -266.5 458.125 C-267.16 458.125 -267.82 458.125 -268.5 458.125 C-268.83 459.115 -269.16 460.105 -269.5 461.125 C-270.16 461.125 -270.82 461.125 -271.5 461.125 C-271.83 462.115 -272.16 463.105 -272.5 464.125 C-273.9375 465.8125 -273.9375 465.8125 -275.5 467.125 C-276.16 467.125 -276.82 467.125 -277.5 467.125 C-277.5 467.785 -277.5 468.445 -277.5 469.125 C-278.16 469.125 -278.82 469.125 -279.5 469.125 C-279.5 469.785 -279.5 470.445 -279.5 471.125 C-280.16 471.125 -280.82 471.125 -281.5 471.125 C-281.768125 471.723125 -282.03625 472.32125 -282.3125 472.9375 C-283.49917406 475.12347854 -284.59599113 476.53832594 -286.5 478.125 C-287.16 478.125 -287.82 478.125 -288.5 478.125 C-288.5 478.785 -288.5 479.445 -288.5 480.125 C-289.16 480.125 -289.82 480.125 -290.5 480.125 C-290.5 480.785 -290.5 481.445 -290.5 482.125 C-291.16 482.125 -291.82 482.125 -292.5 482.125 C-292.83 483.115 -293.16 484.105 -293.5 485.125 C-295.12102968 486.83608689 -296.79503463 488.49753306 -298.5 490.125 C-299.386875 491.053125 -300.27375 491.98125 -301.1875 492.9375 C-303.5 495.125 -303.5 495.125 -305.5 495.125 C-305.768125 495.723125 -306.03625 496.32125 -306.3125 496.9375 C-307.49917406 499.12347854 -308.59599113 500.53832594 -310.5 502.125 C-311.16 502.125 -311.82 502.125 -312.5 502.125 C-312.5 502.785 -312.5 503.445 -312.5 504.125 C-313.16 504.125 -313.82 504.125 -314.5 504.125 C-314.8403125 504.9603125 -314.8403125 504.9603125 -315.1875 505.8125 C-317.61420254 510.08811877 -320.93250373 513.26416819 -325.5 515.125 C-325.5 515.785 -325.5 516.445 -325.5 517.125 C-326.16 517.125 -326.82 517.125 -327.5 517.125 C-327.9021875 518.0221875 -327.9021875 518.0221875 -328.3125 518.9375 C-329.50572423 521.13554464 -330.74678871 522.37178871 -332.5 524.125 C-332.974375 524.929375 -333.44875 525.73375 -333.9375 526.5625 C-335.53821633 529.18767478 -337.33555402 530.96055402 -339.5 533.125 C-340.55771739 534.75564764 -341.55273046 536.42780873 -342.5 538.125 C-344.4238167 541.51600765 -346.33573473 544.87860209 -348.5 548.125 C-350.17298162 553.06542947 -350.92020764 557.81465303 -351.1875 563 C-351.22584961 563.70181396 -351.26419922 564.40362793 -351.30371094 565.12670898 C-351.86985495 577.24695545 -348.86894245 585.80437048 -342.5 596.125 C-341.84 596.785 -341.18 597.445 -340.5 598.125 C-340.5 599.445 -340.5 600.765 -340.5 602.125 C-339.84 602.125 -339.18 602.125 -338.5 602.125 C-338.5 602.785 -338.5 603.445 -338.5 604.125 C-337.84 604.125 -337.18 604.125 -336.5 604.125 C-336.5 604.785 -336.5 605.445 -336.5 606.125 C-335.51 606.455 -334.52 606.785 -333.5 607.125 C-333.231875 607.8675 -332.96375 608.61 -332.6875 609.375 C-331.46928432 612.19613105 -330.70692246 612.97208345 -328.375 614.8125 C-327.42625 615.575625 -326.4775 616.33875 -325.5 617.125 C-325.5 617.785 -325.5 618.445 -325.5 619.125 C-324.84 619.125 -324.18 619.125 -323.5 619.125 C-322.31311994 620.5043471 -321.1289022 621.88784003 -320.01171875 623.32421875 C-317.98451274 625.73905588 -315.74238102 627.91317376 -313.5 630.125 C-312.00955169 631.61371785 -310.52006499 633.10339872 -309.03125 634.59375 C-308.21269531 635.41230469 -307.39414062 636.23085938 -306.55078125 637.07421875 C-268.5 675.125 -268.5 675.125 -266.16661197 677.45891178 C-263.58503327 680.03998344 -261.00194028 682.61952662 -258.41819286 685.1984272 C-257.40182245 686.21292815 -256.38545239 687.22742947 -255.36908263 688.24193108 C-254.83033173 688.77967546 -254.29158084 689.31741984 -253.73650416 689.8714595 C-250.73358257 692.86880006 -247.73077747 695.86625731 -244.72796631 698.8637085 C-244.08257243 699.5079497 -243.43717854 700.15219091 -242.77222727 700.81595457 C-213.100231 730.43512237 -183.4358186 760.06187339 -153.77728365 789.69452036 C-149.49505294 793.97299921 -145.21275668 798.25141245 -140.93041992 802.52978516 C-139.65168745 803.80733723 -139.65168745 803.80733723 -138.34712199 805.11069845 C-124.51324055 818.93149808 -110.67407298 832.74699302 -96.83297577 846.56056584 C-82.62980532 860.73572671 -68.43229543 874.91653837 -54.2400735 889.10266101 C-45.48086842 897.85774228 -36.71723077 906.60833832 -27.94793645 915.35331415 C-21.94613721 921.33931106 -15.94982225 927.33076484 -9.95787372 933.32662214 C-6.49640686 936.79001879 -3.03249705 940.2508802 0.43792343 943.70530701 C3.61023262 946.8631019 6.77564572 950.0276378 9.93554559 953.1978489 C11.08417322 954.34775234 12.23538166 955.49508434 13.38931397 956.63966443 C14.94898131 958.18741595 16.49926045 959.74398446 18.04739857 961.30325508 C18.91348832 962.16820567 19.77957807 963.03315626 20.67191297 963.92431748 C22.5 966.125 22.5 966.125 22.5 969.125 C23.16 969.125 23.82 969.125 24.5 969.125 C25.76953125 970.41796875 25.76953125 970.41796875 27.3125 972.3125 C31.25903316 976.98492827 35.56731128 981.22816764 39.96801758 985.4675293 C43.0629585 988.49710036 45.35236054 991.32781818 47.5 995.125 C48.95833358 996.75014468 48.95833358 996.75014468 50.5 998.125 C53.88499948 1001.40134517 55.8699065 1004.83741764 57.9375 1009.0625 C59.42034482 1012.14155224 59.42034482 1012.14155224 61.375 1014.8125 C64.2870444 1019.35186333 66.38149328 1024.17461184 68.5 1029.125 C68.83773437 1029.87652344 69.17546875 1030.62804688 69.5234375 1031.40234375 C72.6648927 1040.16072084 72.84230659 1048.65059529 72.81567383 1057.8359375 C72.81250655 1060.12027437 72.83606284 1062.40332173 72.86132812 1064.6875 C72.89444503 1072.30428387 72.6132505 1079.05287679 69.5 1086.125 C69.149375 1087.17429687 68.79875 1088.22359375 68.4375 1089.3046875 C68.128125 1090.19414063 67.81875 1091.08359375 67.5 1092 C67.190625 1092.90492187 66.88125 1093.80984375 66.5625 1094.7421875 C65.48454019 1097.1596709 64.43856133 1098.37254056 62.5 1100.125 C61.47388051 1101.77571396 60.47691857 1103.44470006 59.5 1105.125 C55.46818066 1111.65932789 51.17843229 1116.33453843 44.5 1120.125 C44.02433594 1120.60839844 43.54867187 1121.09179688 43.05859375 1121.58984375 C35.37080986 1129.16202187 19.84431707 1132.55620814 9.4765625 1132.984375 C7.49842095 1132.90819812 7.49842095 1132.90819812 6.5 1134.125 C4.33519203 1134.2239294 2.16706215 1134.254711 0 1134.25 C-1.1859375 1134.25257812 -2.371875 1134.25515625 -3.59375 1134.2578125 C-6.5 1134.125 -6.5 1134.125 -7.5 1133.125 C-9.18455421 1132.96513018 -10.87319344 1132.84759405 -12.5625 1132.75 C-17.00234687 1132.38814961 -20.60240235 1131.59676513 -24.6875 1129.8671875 C-26.70001425 1128.99259228 -26.70001425 1128.99259228 -29.75 1128.3125 C-37.59910318 1125.82695066 -44.74949541 1121.78606269 -51.5 1117.125 C-52.5725 1116.63 -53.645 1116.135 -54.75 1115.625 C-57.65364077 1114.04119594 -58.44249153 1113.19177455 -59.5 1110.125 C-60.16 1110.125 -60.82 1110.125 -61.5 1110.125 C-61.5 1109.465 -61.5 1108.805 -61.5 1108.125 C-62.2115625 1108.07085938 -62.923125 1108.01671875 -63.65625 1107.9609375 C-67.42596076 1106.85280824 -69.42371379 1104.56443031 -72 1101.75 C-75.50248115 1097.89397131 -75.50248115 1097.89397131 -79.72053736 1094.89215046 C-83.54612071 1092.45988845 -86.50542056 1089.39377734 -89.69015217 1086.18653011 C-90.40672671 1085.47286245 -91.12330125 1084.75919479 -91.86159018 1084.02390084 C-94.27385314 1081.61896654 -96.67889588 1079.20693826 -99.08406067 1076.79490662 C-100.82449312 1075.05677744 -102.56536151 1073.31908468 -104.30662936 1071.58179241 C-108.09777895 1067.79726653 -111.88578672 1064.00963643 -115.67107582 1060.21925163 C-121.29973043 1054.58304035 -126.93407874 1048.95254685 -132.56957084 1043.32317322 C-142.63278387 1033.27049916 -152.69025952 1023.21210041 -162.74531682 1013.15126942 C-171.5426946 1004.34886476 -180.3419237 995.54831606 -189.14301109 986.74962044 C-189.72631939 986.16646491 -190.30962769 985.58330939 -190.91061199 984.98248248 C-193.27829163 982.61542549 -195.64597834 980.24837558 -198.01367669 977.88133731 C-220.23073618 955.6703979 -242.44195521 933.45362613 -264.65057347 911.23424674 C-284.39683413 891.47849088 -304.14826401 871.72791714 -323.90405273 851.98168945 C-346.08674925 829.80969257 -368.26622338 807.63448045 -390.44047755 785.45404011 C-392.80233457 783.09154163 -395.16419948 780.72905104 -397.52606773 778.3665638 C-398.10764158 777.78483179 -398.68921543 777.20309979 -399.28841274 776.60373954 C-408.08534472 767.80452899 -416.88474881 759.0077957 -425.68534279 750.21224785 C-435.6858603 740.21743581 -445.6828233 730.21908397 -455.67504809 720.21598106 C-461.27303739 714.61209925 -466.87378965 709.01101221 -472.47848462 703.41383687 C-476.65194283 699.24536285 -480.82021139 695.07172759 -484.98639258 690.89597977 C-486.68098204 689.19914025 -488.37729253 687.50401754 -490.07541261 685.81071132 C-492.36790048 683.52422869 -494.65425488 681.23179096 -496.93905354 678.93762875 C-497.61305373 678.26831089 -498.28705392 677.59899302 -498.98147836 676.9093928 C-503.5 672.3533008 -503.5 672.3533008 -503.5 670.125 C-504.31210937 669.80015625 -504.31210937 669.80015625 -505.140625 669.46875 C-508.31645344 667.66000003 -510.70728081 665.20776201 -513.25 662.625 C-513.75660156 662.12613281 -514.26320313 661.62726562 -514.78515625 661.11328125 C-518.5 657.37841139 -518.5 657.37841139 -518.5 655.125 C-519.098125 654.856875 -519.69625 654.58875 -520.3125 654.3125 C-522.54237457 653.10199666 -523.95490692 652.133621 -525.5 650.125 C-525.5 648.805 -525.5 647.485 -525.5 646.125 C-526.16 646.125 -526.82 646.125 -527.5 646.125 C-529.0859375 644.515625 -529.0859375 644.515625 -530.875 642.375 C-532.77868633 640.12770223 -534.63662327 637.99217182 -536.75 635.9375 C-538.76243743 633.85318981 -540.03195328 631.61429662 -541.5 629.125 C-542.2425 628.3825 -542.2425 628.3825 -543 627.625 C-544.94735868 625.67764132 -546.10106311 623.49740635 -547.5 621.125 C-548.02980469 620.28839844 -548.55960938 619.45179688 -549.10546875 618.58984375 C-549.62753906 617.75582031 -550.14960937 616.92179688 -550.6875 616.0625 C-551.21730469 615.22589844 -551.74710938 614.38929688 -552.29296875 613.52734375 C-553.5 611.125 -553.5 611.125 -553.5 607.125 C-554.49 606.795 -555.48 606.465 -556.5 606.125 C-557.28369141 604.46679687 -557.28369141 604.46679687 -557.8515625 602.34375 C-558.16867187 601.20486328 -558.16867187 601.20486328 -558.4921875 600.04296875 C-558.70101562 599.24503906 -558.90984375 598.44710937 -559.125 597.625 C-560.11304697 592.47113717 -560.11304697 592.47113717 -562.5 588.125 C-562.82595547 584.50327258 -563.01380536 580.8804479 -563.21875 577.25 C-563.15135448 574.2600199 -563.15135448 574.2600199 -564.5 573.125 C-564.59873816 571.12700428 -564.62971799 569.12542842 -564.625 567.125 C-564.62757813 566.031875 -564.63015625 564.93875 -564.6328125 563.8125 C-564.5 561.125 -564.5 561.125 -563.5 560.125 C-563.31403613 558.25355409 -563.1766224 556.37719696 -563.0625 554.5 C-562.69467303 549.76283442 -562.03342655 545.644573 -560.5 541.125 C-560.03013672 539.63033203 -560.03013672 539.63033203 -559.55078125 538.10546875 C-556.77188589 529.39688589 -556.77188589 529.39688589 -554.5 527.125 C-553.8574765 525.05625966 -553.8574765 525.05625966 -553.5 523.125 C-552.84 523.125 -552.18 523.125 -551.5 523.125 C-551.4175 522.42375 -551.335 521.7225 -551.25 521 C-550.31706355 517.42374363 -548.6439951 515.12659313 -546.5 512.125 C-545.84 511.114375 -545.18 510.10375 -544.5 509.0625 C-539.91241439 502.32448364 -534.51524886 496.00915109 -528.625 490.375 C-526.44676353 488.06863197 -526.09707311 487.11036554 -525.5 484.125 C-524.0625 482.375 -524.0625 482.375 -522.5 481.125 C-521.84 481.125 -521.18 481.125 -520.5 481.125 C-520.5 480.465 -520.5 479.805 -520.5 479.125 C-519.84 479.125 -519.18 479.125 -518.5 479.125 C-518.5 478.465 -518.5 477.805 -518.5 477.125 C-517.84 477.125 -517.18 477.125 -516.5 477.125 C-516.5 476.465 -516.5 475.805 -516.5 475.125 C-514.92578125 473.609375 -514.92578125 473.609375 -512.8125 471.875 C-510.14650867 469.62424272 -507.78989909 467.42450455 -505.625 464.6875 C-504.92375 463.841875 -504.2225 462.99625 -503.5 462.125 C-502.84 462.125 -502.18 462.125 -501.5 462.125 C-501.17 461.135 -500.84 460.145 -500.5 459.125 C-499.84 459.125 -499.18 459.125 -498.5 459.125 C-498.5 458.465 -498.5 457.805 -498.5 457.125 C-497.84 457.125 -497.18 457.125 -496.5 457.125 C-496.5 456.465 -496.5 455.805 -496.5 455.125 C-495.84 455.125 -495.18 455.125 -494.5 455.125 C-494.5 454.465 -494.5 453.805 -494.5 453.125 C-493.84 453.125 -493.18 453.125 -492.5 453.125 C-492.5 452.465 -492.5 451.805 -492.5 451.125 C-490.125 448.5 -490.125 448.5 -487.5 446.125 C-486.84 446.125 -486.18 446.125 -485.5 446.125 C-485.5 445.465 -485.5 444.805 -485.5 444.125 C-484.84 444.125 -484.18 444.125 -483.5 444.125 C-483.5 443.465 -483.5 442.805 -483.5 442.125 C-482.84 442.125 -482.18 442.125 -481.5 442.125 C-481.5 441.465 -481.5 440.805 -481.5 440.125 C-479.85546875 438.5390625 -479.85546875 438.5390625 -477.6875 436.75 C-475.43749143 434.88933718 -473.59649715 433.25627297 -471.86328125 430.8984375 C-471.41339844 430.31320312 -470.96351563 429.72796875 -470.5 429.125 C-469.84 429.125 -469.18 429.125 -468.5 429.125 C-468.5 428.465 -468.5 427.805 -468.5 427.125 C-466.125 424.5 -466.125 424.5 -463.5 422.125 C-462.84 422.125 -462.18 422.125 -461.5 422.125 C-461.5 421.465 -461.5 420.805 -461.5 420.125 C-460.84 420.125 -460.18 420.125 -459.5 420.125 C-459.5 419.465 -459.5 418.805 -459.5 418.125 C-458.84 418.125 -458.18 418.125 -457.5 418.125 C-457.5 417.465 -457.5 416.805 -457.5 416.125 C-455.51739574 414.43767723 -453.5167658 412.77133943 -451.5 411.125 C-451.17 410.465 -450.84 409.805 -450.5 409.125 C-449.84 409.125 -449.18 409.125 -448.5 409.125 C-448.5 408.465 -448.5 407.805 -448.5 407.125 C-447.02307016 405.8778148 -445.54202596 404.63464765 -444.02734375 403.43359375 C-442.20225929 401.86990246 -440.92509913 400.04888382 -439.5 398.125 C-438.84 398.125 -438.18 398.125 -437.5 398.125 C-437.5 397.465 -437.5 396.805 -437.5 396.125 C-436.84 396.125 -436.18 396.125 -435.5 396.125 C-435.5 395.465 -435.5 394.805 -435.5 394.125 C-434.84 394.125 -434.18 394.125 -433.5 394.125 C-433.17 393.135 -432.84 392.145 -432.5 391.125 C-429.94300882 388.34883815 -427.23436352 385.87759482 -424.3125 383.5 C-421.38119654 381.24777665 -421.38119654 381.24777665 -419.5 378.125 C-418.84 378.125 -418.18 378.125 -417.5 378.125 C-416.84 376.805 -416.18 375.485 -415.5 374.125 C-414.84 374.125 -414.18 374.125 -413.5 374.125 C-413.5 373.465 -413.5 372.805 -413.5 372.125 C-412.84 372.125 -412.18 372.125 -411.5 372.125 C-411.1596875 371.2896875 -411.1596875 371.2896875 -410.8125 370.4375 C-408.38579746 366.16188123 -405.06749627 362.98583181 -400.5 361.125 C-400.5 360.465 -400.5 359.805 -400.5 359.125 C-399.84 359.125 -399.18 359.125 -398.5 359.125 C-398.231875 358.485625 -397.96375 357.84625 -397.6875 357.1875 C-396.5 355.125 -396.5 355.125 -393.5 354.125 C-393.0359375 353.1659375 -393.0359375 353.1659375 -392.5625 352.1875 C-391.2657662 349.67031085 -390.0778263 349.15613052 -387.5 348.125 C-387.5 347.465 -387.5 346.805 -387.5 346.125 C-386.84 346.125 -386.18 346.125 -385.5 346.125 C-385.17 345.135 -384.84 344.145 -384.5 343.125 C-383.84 343.125 -383.18 343.125 -382.5 343.125 C-382.2628125 342.56296875 -382.025625 342.0009375 -381.78125 341.421875 C-380.21052303 338.60605958 -378.28528536 336.64544584 -376 334.375 C-375.2059375 333.57578125 -374.411875 332.7765625 -373.59375 331.953125 C-371.5 330.125 -371.5 330.125 -369.5 330.125 C-368.84 328.805 -368.18 327.485 -367.5 326.125 C-366.84 326.125 -366.18 326.125 -365.5 326.125 C-365.231875 325.526875 -364.96375 324.92875 -364.6875 324.3125 C-363.50082594 322.12652146 -362.40400887 320.71167406 -360.5 319.125 C-359.84 319.125 -359.18 319.125 -358.5 319.125 C-358.5 318.465 -358.5 317.805 -358.5 317.125 C-357.84 317.125 -357.18 317.125 -356.5 317.125 C-356.5 316.465 -356.5 315.805 -356.5 315.125 C-355.84 315.125 -355.18 315.125 -354.5 315.125 C-354.5 314.465 -354.5 313.805 -354.5 313.125 C-353.84 313.125 -353.18 313.125 -352.5 313.125 C-352.231875 312.526875 -351.96375 311.92875 -351.6875 311.3125 C-350.50082594 309.12652146 -349.40400887 307.71167406 -347.5 306.125 C-346.84 306.125 -346.18 306.125 -345.5 306.125 C-345.2525 305.50625 -345.005 304.8875 -344.75 304.25 C-343.26259631 301.72141373 -342.06321991 301.40660996 -339.5 300.125 C-338.81731862 298.79979497 -338.1492959 297.46687818 -337.5 296.125 C-336.51 295.795 -335.52 295.465 -334.5 295.125 C-333.81513275 293.80092331 -333.15129797 292.46590759 -332.5 291.125 C-330.5 288.875 -330.5 288.875 -328.5 287.125 C-327.84 287.125 -327.18 287.125 -326.5 287.125 C-326.231875 286.485625 -325.96375 285.84625 -325.6875 285.1875 C-324.5 283.125 -324.5 283.125 -321.5 282.125 C-321.5 281.465 -321.5 280.805 -321.5 280.125 C-320.84 280.125 -320.18 280.125 -319.5 280.125 C-319.2421875 279.54234375 -318.984375 278.9596875 -318.71875 278.359375 C-317.40165983 275.9447097 -315.94911616 274.30759823 -314 272.375 C-313.3915625 271.76140625 -312.783125 271.1478125 -312.15625 270.515625 C-310.5 269.125 -310.5 269.125 -308.5 269.125 C-308.5 268.465 -308.5 267.805 -308.5 267.125 C-307.84 267.125 -307.18 267.125 -306.5 267.125 C-306.5 266.465 -306.5 265.805 -306.5 265.125 C-305.84 265.125 -305.18 265.125 -304.5 265.125 C-304.29439453 264.59487305 -304.08878906 264.06474609 -303.87695312 263.51855469 C-301.92575616 260.12679316 -299.22455618 257.56449413 -296.46875 254.828125 C-295.87703003 254.23449158 -295.28531006 253.64085815 -294.67565918 253.02923584 C-293.42734419 251.77956282 -292.17651177 250.53240008 -290.92333984 249.28759766 C-288.99992003 247.37492048 -287.08743901 245.45176881 -285.17578125 243.52734375 C-283.96157861 242.31446202 -282.74675607 241.10220048 -281.53125 239.890625 C-280.95725464 239.31258118 -280.38325928 238.73453735 -279.79187012 238.13897705 C-275.72993434 234.125 -275.72993434 234.125 -273.5 234.125 C-273.17515625 233.31289063 -273.17515625 233.31289063 -272.84375 232.484375 C-271.03500003 229.30854656 -268.58276201 226.91771919 -266 224.375 C-265.50113281 223.86839844 -265.00226563 223.36179687 -264.48828125 222.83984375 C-260.75341139 219.125 -260.75341139 219.125 -258.5 219.125 C-258.2628125 218.56296875 -258.025625 218.0009375 -257.78125 217.421875 C-256.21052303 214.60605958 -254.28528536 212.64544584 -252 210.375 C-250.80890625 209.17617188 -250.80890625 209.17617188 -249.59375 207.953125 C-247.5 206.125 -247.5 206.125 -245.5 206.125 C-245.22734892 205.52765509 -244.95469784 204.93031019 -244.67378461 204.31486392 C-243.52921463 202.17950408 -242.420022 200.79262047 -240.71944618 199.08717728 C-240.1501374 198.5114196 -239.58082862 197.93566193 -238.99426806 197.34245706 C-238.36859765 196.71988385 -237.74292724 196.09731064 -237.09829712 195.45587158 C-236.4337915 194.78683485 -235.76928588 194.11779811 -235.08464372 193.42848754 C-232.8523683 191.18353183 -230.61298377 188.94580631 -228.37353516 186.70800781 C-226.77343738 185.10192723 -225.17375141 183.49543629 -223.57444763 181.88856506 C-219.22603228 177.52246134 -214.87112642 173.16288738 -210.51449633 168.80498219 C-206.88193084 165.17051959 -203.25209891 161.53333263 -199.62213266 157.89627433 C-191.5512729 149.81005444 -183.4757343 141.72853903 -175.39651795 133.65067032 C-174.91181937 133.16605165 -174.42712079 132.68143299 -173.92773438 132.18212891 C-173.44244441 131.6969207 -172.95715445 131.2117125 -172.45715873 130.71180102 C-164.58527728 122.84073321 -156.72342952 114.95972722 -148.86605866 107.07417646 C-140.80070816 98.98012828 -132.7277807 90.89372305 -124.647385 82.81469035 C-120.10982841 78.27764485 -115.57546392 73.73751541 -111.04872513 69.18967438 C-106.79435952 64.91601877 -102.53059521 60.65197429 -98.25927925 56.39526176 C-96.69004675 54.82812969 -95.1242509 53.25754798 -93.56209755 51.68335915 C-91.43569991 49.54163866 -89.29746624 47.41249865 -87.15567017 45.28619385 C-86.5344612 44.65469775 -85.91325223 44.02320166 -85.27321875 43.37256932 C-80.95654353 39.125 -80.95654353 39.125 -76.5 39.125 C-76.12875 38.25875 -76.12875 38.25875 -75.75 37.375 C-74.31700012 34.79560021 -72.71575324 33.06378408 -70.5 31.125 C-69.84 31.125 -69.18 31.125 -68.5 31.125 C-68.1596875 30.1659375 -68.1596875 30.1659375 -67.8125 29.1875 C-66.5 27.125 -66.5 27.125 -63.875 26.375 C-63.09125 26.2925 -62.3075 26.21 -61.5 26.125 C-61.5 25.465 -61.5 24.805 -61.5 24.125 C-60.84 24.125 -60.18 24.125 -59.5 24.125 C-59.5 23.465 -59.5 22.805 -59.5 22.125 C-57.36200751 20.56955041 -55.23944074 19.14546605 -53 17.75 C-52.3601416 17.346604 -51.7202832 16.94320801 -51.06103516 16.52758789 C-39.19947314 9.125 -39.19947314 9.125 -33.5 9.125 C-33.17 8.135 -32.84 7.145 -32.5 6.125 C-29.84765625 5.2109375 -29.84765625 5.2109375 -26.5625 4.5 C-22.41199118 3.64915804 -22.41199118 3.64915804 -18.5 2.125 C-15.68056784 1.81172976 -12.86021918 1.61470036 -10.03125 1.40625 C-6.43835251 1.00703917 -3.76875688 -0.00991778 0 0 Z M-25.5 13.125 C-26.29148437 13.42535156 -27.08296875 13.72570312 -27.8984375 14.03515625 C-33.80011913 16.45661034 -38.01109345 20.21959229 -42.55934429 24.56030941 C-43.25366365 25.21759303 -43.947983 25.87487664 -44.66334234 26.55207795 C-53.37275878 34.84201169 -61.86994183 43.34771487 -70.36849878 51.8526285 C-72.85465203 54.33952549 -75.34370693 56.8235159 -77.83235806 59.30791277 C-82.74581865 64.21386489 -87.65665273 69.12243807 -92.56664022 74.03186586 C-98.45652026 79.9208252 -104.34928145 85.80689848 -110.24206917 91.692948 C-124.47098202 105.90587669 -138.69488697 120.1238127 -152.9182074 134.34233748 C-159.65213229 141.07392037 -166.38668752 147.80487248 -173.12131637 154.53575107 C-196.19737648 177.59898694 -219.27238621 200.66327297 -242.3437624 223.7311945 C-243.78914611 225.17635658 -245.2345299 226.62151859 -246.67991377 228.06668052 C-248.12864624 229.51519235 -249.57737863 230.96370426 -251.02611095 232.41221625 C-253.93220021 235.31786297 -256.83829176 238.22350741 -259.74438477 241.12915039 C-260.82517829 242.20977983 -260.82517829 242.20977983 -261.92780603 243.31224017 C-285.31054631 266.6913468 -308.69943075 290.06429378 -332.09199512 313.43357038 C-356.85562765 338.1725954 -381.61380638 362.91706538 -406.36573571 387.66779989 C-409.08344091 390.38533365 -411.8011681 393.10284541 -414.51891136 395.82034111 C-415.52259957 396.82394567 -415.52259957 396.82394567 -416.54656431 397.84782507 C-427.29966662 408.59977827 -438.05769096 419.34679349 -448.81749594 430.09203864 C-459.63133508 440.89149754 -470.43958037 451.69652988 -481.24221454 462.50719721 C-487.65396912 468.92339949 -494.06982349 475.33543602 -500.49173176 481.74147592 C-504.78740511 486.02736774 -509.07754473 490.3187473 -513.36333821 494.61451861 C-515.80084596 497.05739518 -518.24057058 499.4979286 -520.68710057 501.93177224 C-545.19063138 526.32905405 -545.19063138 526.32905405 -557.5 558.125 C-557.6546875 558.88167969 -557.809375 559.63835938 -557.96875 560.41796875 C-560.00101917 573.09655709 -555.48426831 585.706395 -549.68359375 596.765625 C-548.5 599.125 -548.5 599.125 -547.7109375 601.546875 C-546.05002988 605.08300091 -543.47527199 607.46869489 -540.6875 610.125 C-540.16607422 610.63289062 -539.64464844 611.14078125 -539.10742188 611.6640625 C-537.57584868 613.15548209 -536.03840648 614.64063415 -534.5 616.125 C-529.63367783 620.84978095 -529.63367783 620.84978095 -528.4375 623.3125 C-527.21689091 625.67234425 -525.8593401 626.01905933 -523.5 627.125 C-522.84 628.115 -522.18 629.105 -521.5 630.125 C-520.84 630.125 -520.18 630.125 -519.5 630.125 C-519.5 630.785 -519.5 631.445 -519.5 632.125 C-518.51 632.95 -517.52 633.775 -516.5 634.625 C-515.51 635.45 -514.52 636.275 -513.5 637.125 C-513.5 637.785 -513.5 638.445 -513.5 639.125 C-511.83933856 640.13494127 -510.1713853 641.13290677 -508.5 642.125 C-506.87207812 643.59800673 -505.28813877 645.12097276 -503.75 646.6875 C-502.58210938 647.86505859 -502.58210938 647.86505859 -501.390625 649.06640625 C-499.5 651.125 -499.5 651.125 -498.5 653.125 C-497.84 653.125 -497.18 653.125 -496.5 653.125 C-496.5 653.785 -496.5 654.445 -496.5 655.125 C-493.27795318 658.63996016 -489.73394453 661.67364862 -486.05078125 664.6953125 C-484.5 666.125 -484.5 666.125 -482.5 669.125 C-481.84 669.125 -481.18 669.125 -480.5 669.125 C-480.005 670.61 -480.005 670.61 -479.5 672.125 C-478.05492459 673.37301967 -476.60461682 674.61623715 -475.11328125 675.80859375 C-471.75308045 678.55045251 -468.90085543 681.6266392 -466.1875 685 C-463.61777464 688.14972607 -460.65104444 690.68637097 -457.56640625 693.3203125 C-449.28691275 700.5511745 -449.28691275 700.5511745 -447.5 704.125 C-446.84 704.125 -446.18 704.125 -445.5 704.125 C-445.005 705.61 -445.005 705.61 -444.5 707.125 C-442.77234836 708.83789005 -442.77234836 708.83789005 -440.6875 710.5 C-437.53387405 713.16716238 -435.07168491 715.88965446 -432.5 719.125 C-430.83193812 720.63592561 -429.12193258 722.07646109 -427.37890625 723.5 C-424.96096947 725.59118857 -422.74845616 727.85294685 -420.5 730.125 C-419.62859375 730.97320313 -418.7571875 731.82140625 -417.859375 732.6953125 C-416.56773437 733.95988281 -416.56773437 733.95988281 -415.25 735.25 C-414.37859375 736.09820313 -413.5071875 736.94640625 -412.609375 737.8203125 C-410.5 740.125 -410.5 740.125 -409.5 743.125 C-408.51 743.125 -407.52 743.125 -406.5 743.125 C-406.5 743.785 -406.5 744.445 -406.5 745.125 C-404.98280017 746.65957367 -404.98280017 746.65957367 -403 748.25 C-396.95621376 753.39364786 -391.32980722 758.80909825 -386.5 765.125 C-385.84 765.785 -385.18 766.445 -384.5 767.125 C-381.93577299 769.68922701 -379.37906762 772.25169107 -376.875 774.875 C-374.63466888 777.31504674 -374.63466888 777.31504674 -371.5 778.125 C-371.5 778.785 -371.5 779.445 -371.5 780.125 C-369.66666667 782.29166667 -369.66666667 782.29166667 -367.5 784.125 C-366.84 784.125 -366.18 784.125 -365.5 784.125 C-365.5 784.785 -365.5 785.445 -365.5 786.125 C-363.16666667 788.79166667 -363.16666667 788.79166667 -360.5 791.125 C-359.84 791.125 -359.18 791.125 -358.5 791.125 C-358.5 791.785 -358.5 792.445 -358.5 793.125 C-357.0602433 794.36386042 -355.61430315 795.5965184 -354.1328125 796.78515625 C-351.75153574 798.73917043 -349.6526556 800.92228264 -347.5 803.125 C-346.39011719 804.21941406 -346.39011719 804.21941406 -345.2578125 805.3359375 C-344.04738281 806.53089844 -344.04738281 806.53089844 -342.8125 807.75 C-341.66201172 808.88308594 -341.66201172 808.88308594 -340.48828125 810.0390625 C-338.5 812.125 -338.5 812.125 -336.5 815.125 C-335.84 815.125 -335.18 815.125 -334.5 815.125 C-334.5 815.785 -334.5 816.445 -334.5 817.125 C-333.84 817.125 -333.18 817.125 -332.5 817.125 C-332.5 817.785 -332.5 818.445 -332.5 819.125 C-331.84 819.125 -331.18 819.125 -330.5 819.125 C-330.5 819.785 -330.5 820.445 -330.5 821.125 C-329.84 821.125 -329.18 821.125 -328.5 821.125 C-328.17 822.115 -327.84 823.105 -327.5 824.125 C-326.84 824.125 -326.18 824.125 -325.5 824.125 C-325.17 825.115 -324.84 826.105 -324.5 827.125 C-322.96558229 828.60832461 -322.96558229 828.60832461 -321.125 830 C-318.1447894 832.43780008 -316.38881752 834.74501075 -314.5 838.125 C-313.84 838.125 -313.18 838.125 -312.5 838.125 C-310.77302549 839.75329025 -309.13961285 841.41222857 -307.5 843.125 C-306.33440534 844.27192381 -305.16768817 845.41770767 -304 846.5625 C-301.74651669 848.80125466 -299.67076894 851.08195124 -297.6875 853.5625 C-296.965625 854.408125 -296.24375 855.25375 -295.5 856.125 C-294.84 856.125 -294.18 856.125 -293.5 856.125 C-293.17 857.115 -292.84 858.105 -292.5 859.125 C-291.04373428 860.60125203 -291.04373428 860.60125203 -289.1875 862.0625 C-283.7835428 866.63733019 -278.86693124 871.66980149 -273.90209961 876.70922852 C-272.52576493 878.09898383 -271.13409223 879.47349534 -269.7421875 880.84765625 C-267.5 883.125 -267.5 883.125 -265.8125 885.4375 C-265.379375 885.994375 -264.94625 886.55125 -264.5 887.125 C-263.84 887.125 -263.18 887.125 -262.5 887.125 C-262.5 887.785 -262.5 888.445 -262.5 889.125 C-261.84 889.125 -261.18 889.125 -260.5 889.125 C-260.5 889.785 -260.5 890.445 -260.5 891.125 C-259.84 891.125 -259.18 891.125 -258.5 891.125 C-258.17 892.115 -257.84 893.105 -257.5 894.125 C-256.84 894.125 -256.18 894.125 -255.5 894.125 C-255.5 894.785 -255.5 895.445 -255.5 896.125 C-254.84 896.125 -254.18 896.125 -253.5 896.125 C-253.5 896.785 -253.5 897.445 -253.5 898.125 C-252.84 898.125 -252.18 898.125 -251.5 898.125 C-251.5 898.785 -251.5 899.445 -251.5 900.125 C-249.93752272 901.63160662 -249.93752272 901.63160662 -248 903.125 C-246.03125 904.6875 -246.03125 904.6875 -244.5 906.125 C-244.5 906.785 -244.5 907.445 -244.5 908.125 C-243.3553125 908.7746875 -243.3553125 908.7746875 -242.1875 909.4375 C-239.14254412 911.34944904 -238.29564365 913.08021294 -236.5 916.125 C-235.1846659 916.82651152 -233.84882408 917.49025925 -232.5 918.125 C-229.75689854 920.67216565 -227.57906656 923.00640016 -225.5 926.125 C-224.84 926.125 -224.18 926.125 -223.5 926.125 C-223.17 927.115 -222.84 928.105 -222.5 929.125 C-221.84 929.125 -221.18 929.125 -220.5 929.125 C-220.5 929.785 -220.5 930.445 -220.5 931.125 C-218.51739574 932.81232277 -216.5167658 934.47866057 -214.5 936.125 C-214.17 936.785 -213.84 937.445 -213.5 938.125 C-212.84 938.125 -212.18 938.125 -211.5 938.125 C-211.17 939.115 -210.84 940.105 -210.5 941.125 C-208.62491838 943.3335766 -208.62491838 943.3335766 -206.5 945.125 C-205.84 945.125 -205.18 945.125 -204.5 945.125 C-204.5 945.785 -204.5 946.445 -204.5 947.125 C-201.71607658 950.16991624 -198.6973575 952.82243458 -195.5625 955.5 C-192.38207223 958.24646286 -189.72349918 961.13552274 -187.0625 964.375 C-184.74853309 966.96664294 -182.09971323 969.11684605 -179.453125 971.359375 C-176.98286849 973.59248688 -174.92230207 976.0565453 -172.8125 978.625 C-171.23464781 980.42825965 -169.44403135 981.73640618 -167.5 983.125 C-166.84 984.115 -166.18 985.105 -165.5 986.125 C-163.07312472 988.40848531 -160.60381521 990.62765405 -158.10742188 992.83398438 C-155.493314 995.18048071 -153.08718224 997.5307793 -150.8671875 1000.2578125 C-148.83781885 1002.71582667 -146.88337627 1004.66953051 -144.4375 1006.6875 C-141.38645892 1009.27312803 -138.97856532 1011.97912863 -136.5 1015.125 C-135.84 1015.125 -135.18 1015.125 -134.5 1015.125 C-134.5 1015.785 -134.5 1016.445 -134.5 1017.125 C-133.16666667 1018.79166667 -133.16666667 1018.79166667 -131.5 1020.125 C-130.84 1020.125 -130.18 1020.125 -129.5 1020.125 C-129.17 1021.115 -128.84 1022.105 -128.5 1023.125 C-126.87310866 1024.73570961 -126.87310866 1024.73570961 -124.875 1026.3125 C-121.98385367 1028.75608453 -119.43910682 1031.23066817 -117 1034.125 C-114.02794032 1037.64114384 -110.78583078 1040.56540044 -107.27734375 1043.53515625 C-105.05811043 1045.52027265 -103.34206006 1047.79172393 -101.5 1050.125 C-100.530625 1050.929375 -99.56125 1051.73375 -98.5625 1052.5625 C-95.43513226 1055.17927709 -93.10469194 1057.99936967 -90.5 1061.125 C-89.41441853 1062.06360251 -88.31016028 1062.98107847 -87.1875 1063.875 C-86.300625 1064.6175 -85.41375 1065.36 -84.5 1066.125 C-84.5 1066.785 -84.5 1067.445 -84.5 1068.125 C-83.84 1068.125 -83.18 1068.125 -82.5 1068.125 C-82.17 1068.785 -81.84 1069.445 -81.5 1070.125 C-80.015 1071.3625 -80.015 1071.3625 -78.5 1072.625 C-75.5 1075.125 -75.5 1075.125 -74.5 1077.125 C-73.84 1077.125 -73.18 1077.125 -72.5 1077.125 C-72.5 1077.785 -72.5 1078.445 -72.5 1079.125 C-70.91262601 1080.69148858 -70.91262601 1080.69148858 -68.875 1082.3125 C-65.47695944 1085.1882269 -62.63140267 1088.18871009 -59.81640625 1091.625 C-58.23955369 1093.42176968 -56.41442129 1094.70691015 -54.5 1096.125 C-54.17 1097.115 -53.84 1098.105 -53.5 1099.125 C-52.571875 1099.74375 -51.64375 1100.3625 -50.6875 1101 C-47.5 1103.125 -47.5 1103.125 -45.6875 1105.4375 C-35.80572367 1117.57796806 -20.68049914 1124.08094715 -5.5 1126.125 C4.47085361 1127.10181191 13.90414358 1125.98785219 23.5 1123.125 C24.24765625 1122.9084375 24.9953125 1122.691875 25.765625 1122.46875 C40.41702538 1117.62340499 53.13588441 1104.61271562 60.25 1091.25 C68.29950408 1074.22423974 68.09926965 1055.58747072 62.375 1037.875 C59.83936574 1031.20777345 56.28075631 1026.35111193 51.5 1021.125 C50.24862084 1019.68870043 48.99854003 1018.25126824 47.75 1016.8125 C46.90115234 1015.85923828 46.90115234 1015.85923828 46.03515625 1014.88671875 C44.6945185 1013.34822606 43.4333354 1011.74121889 42.1875 1010.125 C41.630625 1009.465 41.07375 1008.805 40.5 1008.125 C39.84 1008.125 39.18 1008.125 38.5 1008.125 C38.5 1007.465 38.5 1006.805 38.5 1006.125 C36.74478052 1004.38806842 36.74478052 1004.38806842 34.5625 1002.625 C30.60120846 999.32741692 30.60120846 999.32741692 29.5 997.125 C28.84 997.125 28.18 997.125 27.5 997.125 C27.5 996.465 27.5 995.805 27.5 995.125 C26.84 995.125 26.18 995.125 25.5 995.125 C25.5 994.465 25.5 993.805 25.5 993.125 C23.51739574 991.43767723 21.5167658 989.77133943 19.5 988.125 C19.17 987.465 18.84 986.805 18.5 986.125 C17.84 986.125 17.18 986.125 16.5 986.125 C16.5 985.465 16.5 984.805 16.5 984.125 C15.84 984.125 15.18 984.125 14.5 984.125 C14.5 983.465 14.5 982.805 14.5 982.125 C13.84 982.125 13.18 982.125 12.5 982.125 C12.5 981.465 12.5 980.805 12.5 980.125 C11.05932315 978.91885194 9.61440466 977.71726601 8.14453125 976.546875 C5.61142342 974.35672951 3.64046767 971.69356121 1.5 969.125 C0.51 968.3 -0.48 967.475 -1.5 966.625 C-4.60705716 964.0357857 -6.91613738 961.22563514 -9.5 958.125 C-10.56350368 957.18539966 -11.64699973 956.26790498 -12.75 955.375 C-15.5 953.125 -15.5 953.125 -16.5 951.125 C-17.16 951.125 -17.82 951.125 -18.5 951.125 C-18.5 950.465 -18.5 949.805 -18.5 949.125 C-19.16 949.125 -19.82 949.125 -20.5 949.125 C-20.5 948.465 -20.5 947.805 -20.5 947.125 C-21.16 947.125 -21.82 947.125 -22.5 947.125 C-22.5 946.465 -22.5 945.805 -22.5 945.125 C-23.94067685 943.91885194 -25.38559534 942.71726601 -26.85546875 941.546875 C-29.38857658 939.35672951 -31.35953233 936.69356121 -33.5 934.125 C-34.49 933.3 -35.48 932.475 -36.5 931.625 C-38.80611421 929.70323816 -40.41947609 928.11142267 -42.25 925.8125 C-42.9925 924.925625 -43.735 924.03875 -44.5 923.125 C-45.16 923.125 -45.82 923.125 -46.5 923.125 C-46.5 922.465 -46.5 921.805 -46.5 921.125 C-48.11799502 919.48824492 -48.11799502 919.48824492 -50.1875 917.8125 C-54.41307884 914.21183071 -58.32359123 910.58756225 -61.8125 906.25 C-64.41880464 903.05172711 -67.44093004 900.46770508 -70.5703125 897.79296875 C-74.00377863 894.82517515 -76.98161982 891.90257027 -79.5 888.125 C-80.16 888.125 -80.82 888.125 -81.5 888.125 C-81.5 887.465 -81.5 886.805 -81.5 886.125 C-83.11799502 884.48824492 -83.11799502 884.48824492 -85.1875 882.8125 C-89.18209263 879.41074444 -93.07946362 876.07166096 -96.1875 871.8125 C-96.620625 871.255625 -97.05375 870.69875 -97.5 870.125 C-98.16 870.125 -98.82 870.125 -99.5 870.125 C-99.83 869.135 -100.16 868.145 -100.5 867.125 C-102.16215268 865.78604368 -103.82963607 864.45369858 -105.5 863.125 C-106.41807575 862.06045062 -107.31408513 860.9764876 -108.1875 859.875 C-109.3321875 858.51375 -109.3321875 858.51375 -110.5 857.125 C-111.16 857.125 -111.82 857.125 -112.5 857.125 C-112.5 856.465 -112.5 855.805 -112.5 855.125 C-113.16 855.125 -113.82 855.125 -114.5 855.125 C-114.5 854.465 -114.5 853.805 -114.5 853.125 C-115.16 853.125 -115.82 853.125 -116.5 853.125 C-116.5 852.465 -116.5 851.805 -116.5 851.125 C-118.83333333 848.45833333 -118.83333333 848.45833333 -121.5 846.125 C-122.16 846.125 -122.82 846.125 -123.5 846.125 C-123.5 845.465 -123.5 844.805 -123.5 844.125 C-125.25521948 842.38806842 -125.25521948 842.38806842 -127.4375 840.625 C-131.39879154 837.32741692 -131.39879154 837.32741692 -132.5 835.125 C-133.16 835.125 -133.82 835.125 -134.5 835.125 C-134.5 834.465 -134.5 833.805 -134.5 833.125 C-136.11799502 831.48824492 -136.11799502 831.48824492 -138.1875 829.8125 C-142.41124574 826.21670938 -146.40497012 822.76754482 -149.5 818.125 C-150.16 818.125 -150.82 818.125 -151.5 818.125 C-151.5 817.465 -151.5 816.805 -151.5 816.125 C-153.83333333 813.45833333 -153.83333333 813.45833333 -156.5 811.125 C-157.16 811.125 -157.82 811.125 -158.5 811.125 C-158.5 810.465 -158.5 809.805 -158.5 809.125 C-159.16 809.125 -159.82 809.125 -160.5 809.125 C-160.5 808.465 -160.5 807.805 -160.5 807.125 C-161.16 807.125 -161.82 807.125 -162.5 807.125 C-162.5 806.465 -162.5 805.805 -162.5 805.125 C-164.83333333 802.45833333 -164.83333333 802.45833333 -167.5 800.125 C-168.16 800.125 -168.82 800.125 -169.5 800.125 C-169.5 799.465 -169.5 798.805 -169.5 798.125 C-171.33333333 795.95833333 -171.33333333 795.95833333 -173.5 794.125 C-174.16 794.125 -174.82 794.125 -175.5 794.125 C-175.768125 793.526875 -176.03625 792.92875 -176.3125 792.3125 C-177.49917406 790.12652146 -178.59599113 788.71167406 -180.5 787.125 C-181.16 787.125 -181.82 787.125 -182.5 787.125 C-182.5 786.465 -182.5 785.805 -182.5 785.125 C-183.16 785.125 -183.82 785.125 -184.5 785.125 C-184.5 784.465 -184.5 783.805 -184.5 783.125 C-185.16 783.125 -185.82 783.125 -186.5 783.125 C-186.5 782.465 -186.5 781.805 -186.5 781.125 C-188.83333333 778.45833333 -188.83333333 778.45833333 -191.5 776.125 C-192.16 776.125 -192.82 776.125 -193.5 776.125 C-193.5 775.465 -193.5 774.805 -193.5 774.125 C-194.16 774.125 -194.82 774.125 -195.5 774.125 C-195.5 773.465 -195.5 772.805 -195.5 772.125 C-196.16 772.125 -196.82 772.125 -197.5 772.125 C-197.5 771.465 -197.5 770.805 -197.5 770.125 C-199.83333333 767.45833333 -199.83333333 767.45833333 -202.5 765.125 C-203.16 765.125 -203.82 765.125 -204.5 765.125 C-204.5 764.465 -204.5 763.805 -204.5 763.125 C-206.33333333 760.95833333 -206.33333333 760.95833333 -208.5 759.125 C-209.16 759.125 -209.82 759.125 -210.5 759.125 C-210.5 758.465 -210.5 757.805 -210.5 757.125 C-211.92561618 755.71886625 -211.92561618 755.71886625 -213.75 754.3125 C-216.76731409 751.81624819 -219.10605539 749.23712799 -221.5 746.125 C-224.02056045 743.35347788 -224.02056045 743.35347788 -226.5 741.125 C-227.16 741.125 -227.82 741.125 -228.5 741.125 C-228.5 740.465 -228.5 739.805 -228.5 739.125 C-229.16 739.125 -229.82 739.125 -230.5 739.125 C-230.5 738.465 -230.5 737.805 -230.5 737.125 C-231.16 737.125 -231.82 737.125 -232.5 737.125 C-232.5 736.465 -232.5 735.805 -232.5 735.125 C-234.83333333 732.45833333 -234.83333333 732.45833333 -237.5 730.125 C-238.16 730.125 -238.82 730.125 -239.5 730.125 C-239.5 729.465 -239.5 728.805 -239.5 728.125 C-241.11799502 726.48824492 -241.11799502 726.48824492 -243.1875 724.8125 C-247.41124574 721.21670938 -251.40497012 717.76754482 -254.5 713.125 C-255.16 713.125 -255.82 713.125 -256.5 713.125 C-256.5 712.465 -256.5 711.805 -256.5 711.125 C-258.11799502 709.48824492 -258.11799502 709.48824492 -260.1875 707.8125 C-264.18209263 704.41074444 -268.07946362 701.07166096 -271.1875 696.8125 C-271.620625 696.255625 -272.05375 695.69875 -272.5 695.125 C-273.16 695.125 -273.82 695.125 -274.5 695.125 C-274.5 694.465 -274.5 693.805 -274.5 693.125 C-275.99266722 691.65063821 -275.99266722 691.65063821 -277.875 690.1875 C-280.33901524 688.20513383 -281.70466437 686.81800345 -283.5 684.125 C-284.16 684.125 -284.82 684.125 -285.5 684.125 C-285.5 683.465 -285.5 682.805 -285.5 682.125 C-286.99266722 680.65063821 -286.99266722 680.65063821 -288.875 679.1875 C-291.33901524 677.20513383 -292.70466437 675.81800345 -294.5 673.125 C-295.16 673.125 -295.82 673.125 -296.5 673.125 C-296.5 672.465 -296.5 671.805 -296.5 671.125 C-297.20125 670.568125 -297.9025 670.01125 -298.625 669.4375 C-301.60774407 667.0383363 -303.79594533 664.4947362 -306.16796875 661.515625 C-306.60753906 661.05671875 -307.04710937 660.5978125 -307.5 660.125 C-308.16 660.125 -308.82 660.125 -309.5 660.125 C-309.5 659.465 -309.5 658.805 -309.5 658.125 C-311.25521948 656.38806842 -311.25521948 656.38806842 -313.4375 654.625 C-317.39879154 651.32741692 -317.39879154 651.32741692 -318.5 649.125 C-319.16 649.125 -319.82 649.125 -320.5 649.125 C-320.5 648.465 -320.5 647.805 -320.5 647.125 C-321.16 647.125 -321.82 647.125 -322.5 647.125 C-322.5 646.465 -322.5 645.805 -322.5 645.125 C-323.16 645.125 -323.82 645.125 -324.5 645.125 C-324.5 644.465 -324.5 643.805 -324.5 643.125 C-326.48260426 641.43767723 -328.4832342 639.77133943 -330.5 638.125 C-330.83 637.465 -331.16 636.805 -331.5 636.125 C-332.16 636.125 -332.82 636.125 -333.5 636.125 C-333.5 635.465 -333.5 634.805 -333.5 634.125 C-334.94208206 632.91767549 -336.3884092 631.71492982 -337.859375 630.54296875 C-339.5 629.125 -339.5 629.125 -341.9375 626.1875 C-344.41579498 623.22563527 -346.95667404 620.9281648 -349.94921875 618.51953125 C-351.5 617.125 -351.5 617.125 -353.5 614.125 C-354.16 614.125 -354.82 614.125 -355.5 614.125 C-355.5 613.465 -355.5 612.805 -355.5 612.125 C-357.08737399 610.55851142 -357.08737399 610.55851142 -359.125 608.9375 C-362.48230195 606.08941845 -365.33411967 603.13427059 -368.13671875 599.75 C-371.03422 596.29624493 -374.23924468 593.30860425 -377.75 590.5 C-380.5 588.125 -380.5 588.125 -381.5 585.125 C-382.49 584.795 -383.48 584.465 -384.5 584.125 C-385.86639342 582.4853279 -387.1949419 580.81389872 -388.5 579.125 C-391.9556234 575.48750168 -395.61623708 572.28620238 -399.5 569.125 C-398.97874586 565.3237253 -398.22117319 563.34659579 -395.50715637 560.63996506 C-394.86361078 559.98845519 -394.22006519 559.33694533 -393.55701822 558.66569275 C-392.84186676 557.96219273 -392.1267153 557.25869271 -391.38989258 556.53387451 C-390.63335532 555.77392026 -389.87681806 555.01396601 -389.09735543 554.23098284 C-386.53917503 551.66618254 -383.96688347 549.11601062 -381.39453125 546.56542969 C-379.54718678 544.71920446 -377.70072623 542.87209442 -375.8550787 541.02417278 C-371.83003207 536.99699144 -367.79762454 532.97729991 -363.76035881 528.96236992 C-357.75653243 522.99166577 -351.76421669 517.00950941 -345.77432319 511.02483162 C-335.69596018 500.95581636 -325.608591 490.89587033 -315.51638794 480.84072876 C-301.72799451 467.10272733 -287.95271466 453.35163348 -274.18092024 439.59699452 C-267.7658772 433.18997764 -261.35019275 426.78360311 -254.93434143 420.37739563 C-253.97082124 419.41532152 -253.97082124 419.41532152 -252.987836 418.43381157 C-237.69157304 403.16080377 -222.38903443 387.89408836 -207.08544922 372.62841797 C-206.41572457 371.9603479 -205.74599992 371.29227783 -205.05598058 370.60396321 C-194.19110801 359.7659501 -183.32585567 348.92831774 -172.46054041 338.09074843 C-162.29269049 327.94885928 -152.12497198 317.80683841 -141.95751953 307.66455078 C-141.28936752 306.99805713 -140.62121551 306.33156348 -139.93281648 305.64487305 C-124.67212483 290.42199038 -109.4132409 275.19730175 -94.16000366 259.96694946 C-93.51846842 259.3263782 -92.87693318 258.68580693 -92.21595748 258.02582441 C-85.81014917 251.62955907 -79.40465642 245.23297789 -72.99963383 238.83592575 C-59.24703555 225.10058037 -45.48896832 211.37077819 -31.71967978 197.6521631 C-21.67672475 187.64599914 -11.64068716 177.63294272 -1.61176294 167.61271566 C4.34317771 161.66342264 10.30369873 155.71985008 16.27238769 149.78434966 C20.26437516 145.81346685 24.24898335 141.83527822 28.22781598 137.85121461 C30.49153101 135.58494805 32.75931016 133.32304778 35.03401375 131.06780386 C52.25312918 113.98914649 66.47576029 97.28841324 66.6015625 71.7734375 C66.14608943 53.08644788 59.07826179 37.95631591 46.1875 24.5625 C43.85779887 21.90106169 43.85779887 21.90106169 41.5 22.125 C41.5 21.465 41.5 20.805 41.5 20.125 C23.12052141 3.58346927 -4.14377248 2.75461286 -25.5 13.125 Z " fill="#000100" transform="translate(638.5,73.875)"/>
</svg>
