<?xml version="1.0" encoding="utf-8"?>
<!-- Svg Vector Icons : http://www.onlinewebfonts.com/icon -->
<!DOCTYPE svg PUBLIC "-//W3C//DTD SVG 1.1//EN" "http://www.w3.org/Graphics/SVG/1.1/DTD/svg11.dtd">
<svg version="1.1" xmlns="http://www.w3.org/2000/svg" xmlns:xlink="http://www.w3.org/1999/xlink" x="0px" y="0px" viewBox="0 0 256 256" enable-background="new 0 0 256 256" xml:space="preserve">
<metadata> Svg Vector Icons : http://www.onlinewebfonts.com/icon </metadata>
<g><g><path fill="#000000" d="M128,10C62.8,10,10,62.8,10,128c0,65.2,52.8,118,118,118c65.2,0,118-52.8,118-118C246,62.8,193.2,10,128,10z M128,235.3c-59.2,0-107.3-48-107.3-107.3c0-59.2,48-107.3,107.3-107.3c59.2,0,107.3,48,107.3,107.3C235.3,187.2,187.2,235.3,128,235.3z M85.1,140.6l30.3,30.3l54.2-54.2l-30.3-30.3L85.1,140.6z M146.9,78.8l30.3,30.3L192.4,94L162,63.6L146.9,78.8z M68.6,187.4l37.9-7.6l-30.3-30.4L68.6,187.4z"/></g></g>
</svg>