<?xml version="1.0" standalone="no"?>
<!DOCTYPE svg PUBLIC "-//W3C//DTD SVG 20010904//EN"
 "http://www.w3.org/TR/2001/REC-SVG-20010904/DTD/svg10.dtd">
<svg version="1.0" xmlns="http://www.w3.org/2000/svg"
 viewBox="0 0 2600.000000 2600.000000"
 preserveAspectRatio="xMidYMid meet">
<metadata>
Created by potrace 1.15, written by Peter Selinger 2001-2017
</metadata>
<g transform="translate(0.000000,2600.000000) scale(0.100000,-0.100000)"
fill="#000000" stroke="none">
<path d="M7065 22234 c-587 -38 -1097 -166 -1583 -400 -196 -94 -301 -153
-492 -279 -1081 -713 -1790 -1932 -1975 -3400 -38 -306 -48 -512 -42 -874 7
-387 28 -625 88 -976 158 -929 518 -1856 1032 -2655 498 -773 1120 -1390 1832
-1815 138 -83 387 -212 496 -259 l65 -27 3295 1708 3294 1708 22 112 c92 473
106 1052 37 1573 -154 1163 -707 2380 -1530 3370 -1043 1255 -2440 2046 -3874
2195 -151 15 -544 27 -665 19z"/>
<path d="M13870 21944 c-368 -45 -650 -174 -903 -414 -231 -219 -402 -539
-463 -865 -28 -150 -26 -462 4 -600 77 -348 220 -607 468 -845 203 -194 437
-317 725 -382 89 -20 132 -23 294 -23 162 0 205 3 294 23 288 65 522 188 725
382 248 238 391 497 468 845 30 138 32 450 4 600 -75 404 -309 776 -634 1008
-165 119 -396 216 -597 251 -90 16 -319 28 -385 20z"/>
<path d="M18785 19959 c-1173 -49 -2366 -560 -3378 -1448 -1181 -1034 -2042
-2582 -2256 -4056 -84 -578 -71 -1213 37 -1720 l17 -80 3307 -1688 3307 -1688
173 85 c741 362 1373 896 1917 1620 460 611 855 1396 1085 2154 400 1316 404
2626 11 3807 -254 764 -644 1388 -1195 1911 -409 388 -918 695 -1463 883 -361
124 -779 204 -1131 216 -83 3 -176 7 -206 8 -30 2 -131 0 -225 -4z"/>
<path d="M9863 13097 c-1729 -897 -3143 -1633 -3143 -1636 0 -16 388 -133 595
-180 403 -90 731 -115 1375 -101 178 3 232 1 315 -14 309 -56 613 -201 867
-412 42 -36 127 -118 190 -183 l113 -118 955 -2128 c525 -1170 960 -2129 966
-2131 9 -4 370 179 883 448 73 39 131 66 129 62 -3 -5 -228 -392 -501 -860
-273 -468 -497 -856 -499 -862 -4 -14 2073 -1076 2082 -1065 4 4 427 960 940
2123 l934 2115 85 99 c283 327 672 565 1046 640 149 30 210 33 358 18 199 -20
646 -20 854 1 210 22 467 66 670 116 158 40 499 146 507 159 3 5 -6274 3216
-6314 3230 -18 7 77 -289 162 -503 163 -409 389 -797 671 -1151 125 -156 170
-223 230 -334 95 -178 154 -367 183 -585 30 -225 9 -552 -51 -786 -10 -39
-109 -217 -335 -605 -176 -302 -324 -550 -328 -551 -9 -3 -1983 3337 -1999
3382 -22 63 -61 276 -74 400 -16 157 -7 397 20 543 50 264 158 509 294 666
314 358 584 791 771 1235 59 139 155 412 181 511 8 33 18 66 21 75 3 8 2 15
-2 14 -5 0 -1423 -735 -3151 -1632z"/>
</g>
</svg>
